<svg version="1.1" id="Layer_1" xmlns="http://www.w3.org/2000/svg" xmlns:xlink="http://www.w3.org/1999/xlink" x="0px" y="0px"
	 width="100%" viewBox="0 0 305 315" enable-background="new 0 0 305 315" xml:space="preserve">
<path fill="#000000" opacity="1.000000" stroke="none" 
	d="
M1.000000,114.000000 
	C1.000000,76.000031 1.000000,38.500053 1.000000,1.000060 
	C102.666565,1.000040 204.333130,1.000040 305.999756,1.000020 
	C305.999847,105.999825 305.999847,210.999649 305.999939,315.999634 
	C204.333588,315.999756 102.667160,315.999756 1.000371,315.999878 
	C1.000000,248.833328 1.000000,181.666672 1.000000,114.000000 
M279.948090,38.445137 
	C279.636841,38.267738 279.325562,38.090340 279.015320,37.987942 
	C279.015320,37.987942 279.090088,37.981846 278.959778,37.437134 
	C278.646088,37.262150 278.332367,37.087162 278.014954,36.985146 
	C278.014954,36.985146 278.087860,36.980835 277.958099,36.436390 
	C277.644745,36.260654 277.331421,36.084919 277.011047,35.984383 
	C277.011047,35.984383 277.086548,35.986423 276.940918,35.450867 
	C276.631470,35.271606 276.322052,35.092346 276.015656,34.989227 
	C276.015656,34.989227 276.091461,34.981319 275.957947,34.440361 
	C275.646454,34.264572 275.334991,34.088787 275.014771,33.984467 
	C275.014771,33.984467 275.086304,33.976398 274.950256,33.442219 
	C274.642090,33.267910 274.333893,33.093597 274.024780,32.991592 
	C274.024780,32.991592 274.087463,32.955471 273.970337,32.412735 
	C273.651001,32.284286 273.331665,32.155838 272.660400,31.896172 
	C272.660400,31.896172 272.289246,31.953657 272.004150,31.462364 
	C271.677948,31.323959 271.351776,31.185555 270.627930,30.913078 
	C270.627930,30.913078 270.213104,30.976324 269.932922,30.585243 
	C269.756287,30.249058 269.483856,30.127520 268.337646,30.038855 
	C265.209930,29.066214 262.082214,28.093571 258.125610,26.953266 
	C256.210388,26.637180 254.279663,25.975758 252.382507,26.061089 
	C240.130447,26.612169 227.881683,27.259958 215.639954,28.008902 
	C206.623062,28.560555 197.614456,29.863209 188.609833,29.796473 
	C181.944855,29.747074 178.473602,33.385818 175.028458,38.479645 
	C175.008362,38.645378 174.988281,38.811111 174.163528,38.974121 
	C170.402069,37.968956 166.640610,36.963791 162.920135,35.440346 
	C162.624466,35.323780 162.328781,35.207211 161.399872,34.930370 
	C160.965424,34.902493 160.530975,34.874619 159.672440,34.199966 
	C158.130356,34.167469 156.588287,34.134968 154.214172,33.935268 
	C152.804138,33.987022 151.394104,34.038773 149.129959,33.982513 
	C147.411545,34.030819 145.693115,34.079128 143.294235,34.004395 
	C142.506500,34.291523 141.718765,34.578651 140.278717,34.949047 
	C139.845337,35.003880 139.411957,35.058712 138.431320,35.065350 
	C138.230804,35.360878 138.030304,35.656406 137.205612,35.966976 
	C136.795135,36.021523 136.384644,36.076073 135.343552,36.011028 
	C134.852386,36.327156 134.361221,36.643280 133.416718,36.991447 
	C133.416718,36.991447 132.989349,37.145977 132.380051,37.020069 
	C131.898102,37.304768 131.416168,37.589470 130.198929,37.955044 
	C129.463074,38.008739 128.727219,38.062435 127.252853,37.980865 
	C126.503159,37.980663 125.753471,37.980457 124.790771,37.329861 
	C119.939667,28.470364 111.980560,28.003574 103.153366,28.772043 
	C98.144058,29.208139 93.013710,28.385290 87.947281,28.004303 
	C79.673401,27.382122 71.416855,26.329874 63.134533,26.085888 
	C57.108433,25.908367 51.052563,26.741463 44.377541,26.979488 
	C43.949097,26.926147 43.520653,26.872807 42.730549,26.217594 
	C41.104500,26.795197 39.478455,27.372799 37.202923,28.303108 
	C34.504807,29.271105 31.227644,29.582472 29.229643,31.344393 
	C25.125483,34.963608 21.488287,39.184124 18.042973,43.466179 
	C3.677495,61.320522 6.957068,88.139168 24.824516,102.517418 
	C33.051567,109.137863 40.865131,116.279602 48.755680,123.309006 
	C60.961063,134.182343 73.669189,144.174820 89.353157,149.775177 
	C99.404121,153.364105 104.725189,152.676880 109.945198,147.019623 
	C109.953323,147.847092 110.141090,148.721008 109.941078,149.494659 
	C108.380447,155.531357 106.553513,161.507462 105.242241,167.595657 
	C104.812050,169.593018 105.659920,171.865646 106.071762,174.882599 
	C105.473244,179.598236 104.874725,184.313889 104.118393,189.674927 
	C104.073875,190.115097 104.029358,190.555267 103.372292,191.196976 
	C103.349586,191.809067 103.326889,192.421158 103.147011,193.849426 
	C102.768799,196.233444 102.390579,198.617477 101.352318,201.260605 
	C101.321709,202.183197 101.291092,203.105789 101.099403,204.760300 
	C101.074593,205.509262 101.049782,206.258240 100.328766,207.398758 
	C99.987740,210.594727 99.646713,213.790695 99.144852,217.913254 
	C99.199875,226.597565 99.254898,235.281860 99.104012,244.708008 
	C99.109825,247.724609 100.600349,250.059402 103.587700,249.487701 
	C106.595558,248.912109 108.864853,246.736679 107.845581,242.056824 
	C107.900146,238.039642 107.954712,234.022476 108.762192,229.672897 
	C110.592201,217.347427 112.485245,205.040176 119.649704,193.837479 
	C120.471291,193.241074 121.292870,192.644669 122.744568,192.034836 
	C123.469162,192.402740 124.193756,192.770645 125.222832,193.800766 
	C130.713348,204.224533 130.874405,215.758499 132.020859,227.980316 
	C132.068375,247.649979 132.115875,267.319641 132.040848,287.728882 
	C133.009995,289.872925 133.979126,292.016968 135.056747,294.612335 
	C135.234039,294.904144 135.493408,295.050903 135.979263,295.742676 
	C136.634506,296.219696 137.289749,296.696747 138.055206,297.621094 
	C138.232224,297.910065 138.490189,298.054810 139.174179,298.686005 
	C141.112503,299.413788 143.050842,300.141571 145.816544,301.024017 
	C147.214127,300.969147 148.611725,300.914276 150.867020,300.975159 
	C153.940552,300.323334 157.014084,299.671509 160.719193,298.793030 
	C164.514618,294.949554 169.129227,291.542328 168.785614,284.651062 
	C168.806290,263.780518 168.826950,242.909958 168.969498,221.174301 
	C169.894730,211.151321 171.671234,201.337540 176.866638,192.080490 
	C177.901855,192.063065 178.937073,192.045654 180.246567,192.662552 
	C182.913254,197.700073 185.579941,202.737595 188.127716,208.325531 
	C188.179520,208.505966 188.231308,208.686386 188.103302,209.547592 
	C189.825333,217.375397 191.547363,225.203217 193.129471,233.924866 
	C193.182693,236.939133 193.235916,239.953415 193.091095,243.753220 
	C193.083008,246.653351 193.403839,249.755524 197.037170,249.789764 
	C200.432312,249.821808 202.282104,247.623154 201.864746,243.109512 
	C201.925720,241.078049 201.986679,239.046600 202.801117,236.640778 
	C202.522705,233.430984 202.244278,230.221176 201.936630,226.111267 
	C201.858063,223.417999 201.779510,220.724747 201.904907,217.261795 
	C201.591400,215.844910 201.277893,214.428024 200.905365,212.346512 
	C200.848541,211.907562 200.791702,211.468628 200.930145,210.349106 
	C200.626404,209.562347 200.322678,208.775604 199.947922,207.246765 
	C199.879211,206.507538 199.810501,205.768326 199.922440,204.345764 
	C199.629074,203.558945 199.335693,202.772110 198.937683,201.157913 
	C198.528870,198.448898 198.120071,195.739899 197.894424,192.293823 
	C197.269302,190.527039 196.644180,188.760254 195.929443,186.335693 
	C195.868668,185.899826 195.807892,185.463943 195.918442,184.251526 
	C195.548248,180.862305 195.178040,177.473099 195.033310,173.310806 
	C195.077560,171.651917 195.437714,169.927399 195.109177,168.345947 
	C193.938431,162.710266 192.429550,157.144180 191.293793,151.502380 
	C191.025711,150.170746 191.715179,148.646362 192.173599,147.759598 
	C193.056259,148.518890 193.938904,149.278198 195.050400,150.498871 
	C195.346603,150.617722 195.642822,150.736572 196.758728,151.049637 
	C199.505814,151.360367 202.586533,152.626450 204.938263,151.805115 
	C212.402252,149.198441 220.195633,146.743683 226.749390,142.508835 
	C236.396072,136.275391 245.151688,128.642883 254.162384,121.450394 
	C265.287903,112.569801 276.184570,103.401924 284.681549,91.826553 
	C295.854828,76.605286 293.127136,60.941235 284.984314,46.279423 
	C284.673828,45.755051 284.363373,45.230679 284.103668,44.327015 
	C284.103668,44.327015 283.954376,43.974667 283.927338,43.435051 
	C283.627380,43.260189 283.327393,43.085327 283.011505,42.981281 
	C283.011505,42.981281 283.083832,42.987564 282.940094,42.426315 
	C282.639709,42.189018 282.339294,41.951725 282.100159,41.338680 
	C282.100159,41.338680 281.967346,40.981892 281.959961,40.430485 
	C281.653259,40.257946 281.346527,40.085411 281.011353,39.979622 
	C281.011353,39.979622 281.083557,39.972309 280.961304,39.427353 
	C280.647736,39.254669 280.334198,39.081989 280.012817,38.982483 
	C280.012817,38.982483 280.086365,38.984764 279.948090,38.445137 
z"/>
<path fill="#B3AFAD" opacity="1.000000" stroke="none" 
	d="
M138.978577,35.113544 
	C139.411957,35.058712 139.845337,35.003880 140.762421,35.153084 
	C142.155655,34.947224 143.065170,34.537331 143.974701,34.127434 
	C145.693115,34.079128 147.411545,34.030819 149.576492,34.498936 
	C150.001389,74.329048 149.979736,113.642746 149.789810,153.060974 
	C149.554565,153.278473 149.403473,153.446213 149.435196,153.494949 
	C149.572845,153.706390 149.763840,153.883087 149.953949,154.520477 
	C149.968567,157.965622 149.964630,160.962708 149.526764,163.970459 
	C143.817474,163.918472 138.900772,165.027954 134.669754,168.371506 
	C139.772812,167.254761 144.875854,166.138031 149.989761,165.476852 
	C149.979233,169.270844 149.957870,172.609283 149.498993,175.961609 
	C147.596573,175.987625 146.000763,175.625397 144.691650,176.083099 
	C140.984039,177.379425 135.922592,175.836792 133.730316,180.981216 
	C133.223053,181.125427 132.955032,181.257584 132.686996,181.389740 
	C133.130859,181.268478 133.574707,181.147232 134.392090,180.973877 
	C139.550430,178.419373 144.623093,177.417618 150.003433,178.456329 
	C149.971634,182.246033 149.935974,185.579437 149.460617,188.934357 
	C143.596207,189.702927 138.171478,190.449982 132.746765,191.197037 
	C132.848206,191.760696 132.949661,192.324371 133.051117,192.888046 
	C138.676941,191.945145 144.302750,191.002243 149.952606,190.507446 
	C149.959869,193.949783 149.943100,196.944031 149.487030,199.952209 
	C144.075653,200.528931 139.103577,201.091721 134.131500,201.654526 
	C134.209381,202.175003 134.287247,202.695480 134.365112,203.215958 
	C139.556305,202.493988 144.747498,201.772034 149.959579,201.499969 
	C149.971588,204.958771 149.962708,207.967712 149.492493,210.982742 
	C144.591843,210.988846 140.152512,210.988846 135.713181,210.988846 
	C135.710403,211.662506 135.707611,212.336182 135.704819,213.009842 
	C140.462738,213.009842 145.220657,213.009842 149.987122,213.455399 
	C149.965347,216.565125 149.935043,219.229294 149.738754,222.014313 
	C149.687531,222.453308 149.802292,222.771454 149.942871,223.530792 
	C149.614365,227.097656 149.260071,230.223297 148.801453,234.269226 
	C148.967697,234.792618 149.876434,236.424194 149.941360,238.088684 
	C150.134766,243.047638 149.996811,248.019516 149.523041,252.991852 
	C144.613647,252.997360 140.169510,252.997360 135.725388,252.997360 
	C135.721664,253.666992 135.717941,254.336639 135.714218,255.006271 
	C140.466324,255.006271 145.218414,255.006271 149.985580,255.463135 
	C150.005142,256.911713 150.014832,257.903442 150.013260,258.895172 
	C150.003296,265.235840 149.828186,265.440216 143.730789,264.947266 
	C141.469070,264.764465 139.226044,264.350769 136.974487,264.042358 
	C136.921692,264.527893 136.868881,265.013458 136.816071,265.498993 
	C138.818649,265.683044 140.823090,265.849030 142.823456,266.054382 
	C150.008438,266.792084 150.007919,266.797119 149.544098,274.013977 
	C144.779541,274.017090 140.481842,274.017090 136.184158,274.017090 
	C136.160675,274.352783 136.137177,274.688477 136.113693,275.024170 
	C140.743698,275.681580 145.373688,276.338989 150.004913,277.440247 
	C149.995392,280.252136 149.984650,282.620209 149.529236,284.992676 
	C144.944641,284.748810 140.804733,284.500488 136.664841,284.252197 
	C136.638992,284.897827 136.613159,285.543457 136.587311,286.189087 
	C141.050446,286.462860 145.513580,286.736664 149.986938,287.471863 
	C150.003082,291.923340 150.009003,295.913452 150.008698,300.142456 
	C150.002457,300.381409 150.009308,300.859406 150.009308,300.859406 
	C148.611725,300.914276 147.214127,300.969147 145.391876,300.553436 
	C142.921158,299.407013 140.875122,298.731171 138.829071,298.055328 
	C138.490189,298.054810 138.232224,297.910065 137.975311,297.049469 
	C137.208542,296.002777 136.521698,295.527710 135.834854,295.052612 
	C135.493408,295.050903 135.234039,294.904144 135.019730,293.988861 
	C134.328720,291.245026 133.674713,289.124695 133.017731,286.535400 
	C133.010971,268.145203 133.030655,250.223831 132.966263,232.302780 
	C132.959976,230.554245 132.435226,228.807587 132.151138,227.060059 
	C130.874405,215.758499 130.713348,204.224533 125.233276,193.102844 
	C125.480888,191.287476 126.018494,190.138428 125.904785,189.057922 
	C125.318451,183.486359 124.584564,177.929855 123.863419,172.373123 
	C123.360970,168.501556 122.796082,164.638092 122.259079,160.771011 
	C121.751129,160.844055 121.243179,160.917099 120.735229,160.990143 
	C121.071220,165.229019 121.586090,169.463196 121.697701,173.707947 
	C121.835548,178.951080 123.524971,184.516953 119.002502,188.739838 
	C115.975479,182.318634 113.129814,176.215485 105.923340,174.012405 
	C105.659920,171.865646 104.812050,169.593018 105.242241,167.595657 
	C106.553513,161.507462 108.380447,155.531357 109.941078,149.494659 
	C110.141090,148.721008 109.953323,147.847092 109.926453,146.215302 
	C110.313469,143.629227 110.719238,141.847488 111.494972,140.037750 
	C113.207954,138.564896 115.348793,137.313217 115.753639,135.641190 
	C117.366669,128.979294 118.905975,122.226997 119.496902,115.423431 
	C119.757896,112.418488 121.426826,108.132988 116.965408,105.673218 
	C116.903175,104.897018 116.864723,104.453682 117.090073,103.839828 
	C115.092178,101.139008 113.271637,97.811798 110.468300,96.259926 
	C105.945900,93.756416 104.584259,92.020248 106.126633,87.021927 
	C107.097206,83.876648 108.005333,80.711594 109.011711,77.577965 
	C112.748192,65.943314 114.451202,53.372818 124.347939,44.563694 
	C125.241028,43.768753 125.485382,42.244976 126.071899,40.779381 
	C126.129990,40.311031 126.147202,40.122978 126.455307,39.904499 
	C127.161255,39.288086 127.576309,38.702106 127.991364,38.116127 
	C128.727219,38.062435 129.463074,38.008739 130.723999,38.149864 
	C131.829163,37.945114 132.409256,37.545547 132.989349,37.145981 
	C132.989349,37.145977 133.416718,36.991447 133.943054,36.971107 
	C134.970978,36.677383 135.472580,36.403999 135.974167,36.130623 
	C136.384644,36.076073 136.795135,36.021523 137.753418,35.884979 
	C138.623642,35.668121 138.849426,35.438309 138.978577,35.113544 
M140.005798,155.876434 
	C140.710281,155.526184 141.414749,155.175919 142.506241,154.633240 
	C135.705246,153.512527 130.412491,155.890823 128.109741,160.747025 
	C131.819748,159.189713 135.558258,157.620438 140.005798,155.876434 
M131.486877,172.002548 
	C131.901215,171.258041 132.315567,170.513535 132.729919,169.769012 
	C132.358063,169.451721 131.986206,169.134415 131.614349,168.817123 
	C130.352036,170.084091 129.089737,171.351059 127.827431,172.618042 
	C128.143082,172.987259 128.458740,173.356491 128.774384,173.725708 
	C129.517166,173.305756 130.259949,172.885803 131.486877,172.002548 
M129.398865,184.552719 
	C129.946259,184.774368 130.493637,184.996033 131.041031,185.217697 
	C131.140594,184.651810 131.240143,184.085907 131.339706,183.520020 
	C130.782211,183.692719 130.224701,183.865433 129.398865,184.552719 
z"/>
<path fill="#9C9896" opacity="1.000000" stroke="none" 
	d="
M45.009964,27.123980 
	C51.052563,26.741463 57.108433,25.908367 63.134533,26.085888 
	C71.416855,26.329874 79.673401,27.382122 87.947281,28.004303 
	C93.013710,28.385290 98.144058,29.208139 103.153366,28.772043 
	C111.980560,28.003574 119.939667,28.470364 124.952515,37.869736 
	C125.114250,38.409611 125.214470,38.841476 124.805458,38.881500 
	C115.989494,40.640285 109.571259,45.099724 105.529274,52.747616 
	C102.760689,57.986103 101.875763,58.218258 97.082710,54.697285 
	C96.280235,54.107792 95.491455,53.382229 94.577644,53.087204 
	C92.895660,52.544167 91.125511,52.274235 89.392105,51.890484 
	C89.016304,53.707142 88.306938,55.527977 88.329636,57.339642 
	C88.388664,62.050179 88.720802,66.760002 89.042297,71.463387 
	C89.198059,73.742210 89.025696,76.262085 89.945396,78.232430 
	C94.053535,87.033585 97.252739,95.935181 97.119041,105.886223 
	C97.067078,109.753868 97.560295,114.014862 99.191513,117.435585 
	C102.220421,123.787338 101.448166,128.696945 97.174545,134.287064 
	C93.872902,138.605804 91.293991,138.464066 88.013382,135.335846 
	C79.945335,127.642548 70.484650,121.605103 64.333168,111.610123 
	C60.705036,105.715088 56.866673,97.576317 47.075405,98.781029 
	C46.425663,98.860962 45.564533,98.107658 44.964443,97.562721 
	C41.077335,94.032845 36.866379,90.772621 33.451286,86.827042 
	C24.911959,76.961243 19.720549,66.090141 23.845413,52.438793 
	C26.433613,43.873070 31.790083,37.843578 38.868706,32.858677 
	C41.137032,31.261276 42.975063,29.052849 45.009964,27.123980 
z"/>
<path fill="#9C9896" opacity="1.000000" stroke="none" 
	d="
M149.958099,152.956436 
	C149.979736,113.642746 150.001389,74.329048 150.003540,34.552940 
	C151.394104,34.038773 152.804138,33.987022 154.831039,34.278656 
	C156.997452,34.696941 158.546982,34.771839 160.096527,34.846741 
	C160.530975,34.874619 160.965424,34.902493 161.775009,35.221489 
	C162.326736,35.769802 162.569748,35.918476 162.879150,35.958626 
	C166.640610,36.963791 170.402069,37.968956 174.803864,39.207378 
	C175.626617,40.297985 175.809021,41.155334 176.032135,42.363457 
	C179.044678,47.426342 182.843719,51.819313 184.811203,56.918919 
	C188.574936,66.674347 191.223648,76.855652 194.477203,86.813782 
	C196.561905,93.194344 196.425369,93.432884 190.002853,96.221916 
	C188.446518,96.897774 187.390137,98.724838 186.084229,100.272339 
	C186.053467,100.688797 186.042328,100.855469 185.713776,101.164566 
	C183.930435,104.680328 180.964767,108.203072 181.283127,111.398636 
	C182.194092,120.542519 184.388229,129.563950 186.265228,138.594574 
	C186.395554,139.221603 188.064880,139.528748 189.283356,140.213135 
	C190.353531,142.697952 191.158844,144.954300 191.964172,147.210648 
	C191.715179,148.646362 191.025711,150.170746 191.293793,151.502380 
	C192.429550,157.144180 193.938431,162.710266 195.109177,168.345947 
	C195.437714,169.927399 195.077560,171.651917 194.582260,173.727112 
	C192.164444,175.791550 190.197693,177.439682 188.072021,179.332993 
	C187.476761,180.224075 187.040390,180.869965 186.323364,181.679916 
	C185.435654,182.918564 184.828613,183.993179 184.091156,185.354553 
	C183.624313,186.409470 183.287872,187.177628 182.711212,188.078140 
	C182.068085,188.582855 181.665161,188.955215 181.126526,188.928711 
	C180.339584,187.233597 179.154114,185.945740 179.133560,184.639542 
	C179.061111,180.031372 179.435715,175.418091 179.547409,170.804489 
	C179.628860,167.440079 179.563339,164.072113 179.563339,160.705750 
	C177.564194,170.307114 176.284363,179.849686 175.134094,189.407822 
	C175.029266,190.278839 175.755524,191.249893 176.095840,192.174484 
	C171.671234,201.337540 169.894730,211.151321 168.696762,221.596436 
	C168.424026,222.018555 168.000031,222.008942 167.579102,221.992081 
	C161.407043,221.947968 155.655884,221.920715 149.904739,221.893463 
	C149.935043,219.229294 149.965347,216.565125 150.013397,213.442093 
	C150.031128,212.983231 150.082062,212.953674 150.540314,212.969025 
	C155.766571,212.984390 160.534561,212.984390 165.302551,212.984390 
	C165.304276,212.330658 165.306000,211.676926 165.307724,211.023193 
	C160.220352,211.023193 155.132980,211.023193 150.022644,211.011581 
	C149.999695,210.999969 149.953827,210.976639 149.953827,210.976639 
	C149.962708,207.967712 149.971588,204.958771 149.985260,201.478790 
	C149.990036,201.007721 150.042007,200.966171 150.475922,200.980270 
	C155.636063,201.604645 160.362289,202.214935 165.088531,202.825211 
	C165.145126,202.218719 165.201706,201.612228 165.258301,201.005737 
	C160.181931,200.678085 155.105560,200.350433 150.003128,200.002075 
	C149.977066,199.981384 149.926346,199.938293 149.926331,199.938293 
	C149.943100,196.944031 149.959869,193.949783 149.977295,190.486572 
	C149.977951,190.017624 150.028519,189.977310 150.460632,189.987000 
	C156.379074,190.773727 161.865387,191.550751 167.351700,192.327774 
	C161.945663,188.855377 156.115860,188.085083 149.978821,188.982086 
	C149.951889,188.959885 149.900314,188.912827 149.900314,188.912827 
	C149.935974,185.579437 149.971634,182.246033 150.031097,178.434387 
	C150.054916,177.956146 150.108749,177.910492 150.555206,177.936523 
	C157.744019,176.985092 163.465958,179.639740 169.016708,183.323059 
	C169.491165,184.192612 169.934433,184.753952 170.377701,185.315277 
	C170.618500,185.031067 170.859299,184.746841 171.100113,184.462631 
	C170.405289,183.970108 169.710449,183.477600 168.980988,182.631683 
	C166.877258,180.555618 165.046951,177.941101 162.685898,177.308960 
	C158.640137,176.225754 154.262466,176.382172 150.001984,176.000824 
	C149.979782,175.983582 149.936493,175.947708 149.936493,175.947708 
	C149.957870,172.609283 149.979233,169.270844 150.004837,165.461670 
	C150.009064,164.990921 150.039017,164.960739 150.460388,164.975922 
	C159.698303,164.888443 166.775421,169.134338 173.441238,174.421295 
	C167.903473,165.613953 159.437668,163.705185 150.006989,164.006805 
	C149.991547,163.991348 149.960693,163.959793 149.960693,163.959793 
	C149.964630,160.962708 149.968567,157.965622 150.386398,154.497223 
	C156.672546,155.188736 162.544800,156.351562 168.417038,157.514389 
	C162.825226,153.585739 156.458755,152.987747 149.958099,152.956436 
M175.106384,162.262161 
	C173.797699,160.850296 172.488998,159.438431 171.180313,158.026581 
	C170.808914,158.347809 170.437515,158.669052 170.066116,158.990280 
	C171.455185,160.802078 172.844254,162.613876 174.233322,164.425674 
	C174.621750,163.902634 175.010193,163.379578 175.106384,162.262161 
z"/>
<path fill="#888481" opacity="1.000000" stroke="none" 
	d="
M175.129318,37.989071 
	C178.473602,33.385818 181.944855,29.747074 188.609833,29.796473 
	C197.614456,29.863209 206.623062,28.560555 215.639954,28.008902 
	C227.881683,27.259958 240.130447,26.612169 252.382507,26.061089 
	C254.279663,25.975758 256.210388,26.637180 258.335419,27.297432 
	C258.502411,28.739803 258.086914,30.639482 258.471619,30.818367 
	C266.906006,34.740505 271.997955,41.513416 275.975372,49.680405 
	C280.476624,58.922966 278.535492,68.163681 274.662201,76.213089 
	C271.259064,83.285454 264.982635,89.142105 259.304443,94.870796 
	C257.032104,97.163345 252.932571,97.605301 249.725052,99.025772 
	C247.916687,99.826614 245.744553,100.505058 244.575928,101.928154 
	C239.987427,107.515862 236.282791,113.927170 231.215851,118.999680 
	C224.742294,125.480354 217.318100,131.022354 210.198608,136.840424 
	C207.967834,138.663406 206.111832,137.796646 204.280563,135.614838 
	C200.056351,130.581985 199.145782,125.192734 200.918640,118.895653 
	C202.339081,113.850327 203.841187,108.587196 203.810028,103.429764 
	C203.761902,95.459938 206.134369,88.194305 209.673233,81.579140 
	C211.762177,77.674324 211.902969,74.151558 211.962250,70.245941 
	C212.011581,66.995544 211.931992,63.742111 212.033966,60.493927 
	C212.127045,57.528316 214.894501,53.519211 210.998383,52.096352 
	C209.014160,51.371727 205.451279,53.851761 203.093643,55.561249 
	C200.370636,57.535660 198.732605,57.235653 197.007584,54.549530 
	C195.432083,52.096252 194.010223,49.371681 191.886353,47.478100 
	C187.029831,43.148132 182.188065,38.532944 175.129318,37.989071 
z"/>
<path fill="#7F7A78" opacity="1.000000" stroke="none" 
	d="
M175.078888,38.234360 
	C182.188065,38.532944 187.029831,43.148132 191.886353,47.478100 
	C194.010223,49.371681 195.432083,52.096252 197.007584,54.549530 
	C198.732605,57.235653 200.370636,57.535660 203.093643,55.561249 
	C205.451279,53.851761 209.014160,51.371727 210.998383,52.096352 
	C214.894501,53.519211 212.127045,57.528316 212.033966,60.493927 
	C211.931992,63.742111 212.011581,66.995544 211.962250,70.245941 
	C211.902969,74.151558 211.762177,77.674324 209.673233,81.579140 
	C206.134369,88.194305 203.761902,95.459938 203.810028,103.429764 
	C203.841187,108.587196 202.339081,113.850327 200.918640,118.895653 
	C199.145782,125.192734 200.056351,130.581985 204.280563,135.614838 
	C206.111832,137.796646 207.967834,138.663406 210.198608,136.840424 
	C217.318100,131.022354 224.742294,125.480354 231.215851,118.999680 
	C236.282791,113.927170 239.987427,107.515862 244.575928,101.928154 
	C245.744553,100.505058 247.916687,99.826614 249.725052,99.025772 
	C252.932571,97.605301 257.032104,97.163345 259.304443,94.870796 
	C264.982635,89.142105 271.259064,83.285454 274.662201,76.213089 
	C278.535492,68.163681 280.476624,58.922966 275.975372,49.680405 
	C271.997955,41.513416 266.906006,34.740505 258.471619,30.818367 
	C258.086914,30.639482 258.502411,28.739803 258.749878,27.381264 
	C262.082214,28.093571 265.209930,29.066214 268.873535,30.300533 
	C269.681274,30.692558 269.949188,30.830595 270.213104,30.976324 
	C270.213104,30.976324 270.627930,30.913078 270.925690,31.248022 
	C271.578705,31.706530 271.933990,31.830091 272.289246,31.953655 
	C272.289246,31.953657 272.660400,31.896172 272.872375,32.243793 
	C273.418732,32.712769 273.753113,32.834118 274.087463,32.955471 
	C274.087463,32.955471 274.024780,32.991592 274.082062,33.229668 
	C274.454987,33.637299 274.770660,33.806850 275.086304,33.976398 
	C275.086304,33.976398 275.014771,33.984467 275.076599,34.223495 
	C275.456085,34.635456 275.773773,34.808384 276.091461,34.981316 
	C276.091461,34.981319 276.015656,34.989227 276.096741,35.212147 
	C276.480743,35.618855 276.783661,35.802639 277.086548,35.986423 
	C277.086548,35.986423 277.011047,35.984383 277.082092,36.217148 
	C277.464722,36.626888 277.776276,36.803860 278.087860,36.980835 
	C278.087860,36.980835 278.014954,36.985146 278.085968,37.218140 
	C278.468018,37.628036 278.779053,37.804939 279.090088,37.981842 
	C279.090088,37.981846 279.015320,37.987942 279.093933,38.213333 
	C279.477142,38.620735 279.781738,38.802753 280.086365,38.984764 
	C280.086365,38.984764 280.012817,38.982483 280.078766,39.220512 
	C280.457672,39.629795 280.770599,39.801052 281.083557,39.972309 
	C281.083557,39.972309 281.011353,39.979622 281.038879,40.223331 
	C281.366699,40.638660 281.667023,40.810280 281.967346,40.981895 
	C281.967346,40.981892 282.100159,41.338680 282.144409,41.816566 
	C282.487030,42.525486 282.785431,42.756523 283.083832,42.987564 
	C283.083832,42.987564 283.011505,42.981281 283.061096,43.208191 
	C283.391907,43.614960 283.673157,43.794819 283.954376,43.974670 
	C283.954376,43.974667 284.103668,44.327015 284.046021,44.837765 
	C284.285431,45.876724 284.582458,46.404930 284.879486,46.933144 
	C293.127136,60.941235 295.854828,76.605286 284.681549,91.826553 
	C276.184570,103.401924 265.287903,112.569801 254.162384,121.450394 
	C245.151688,128.642883 236.396072,136.275391 226.749390,142.508835 
	C220.195633,146.743683 212.402252,149.198441 204.938263,151.805115 
	C202.586533,152.626450 199.505814,151.360367 196.222656,150.747223 
	C195.434113,150.232849 195.145782,150.097076 194.821564,150.037491 
	C193.938904,149.278198 193.056259,148.518890 192.068878,147.485123 
	C191.158844,144.954300 190.353531,142.697952 189.277451,139.775513 
	C189.461304,136.401978 189.579590,133.583282 190.431702,131.007339 
	C193.330978,122.242859 196.761200,113.647163 199.457138,104.824600 
	C201.401093,98.462921 201.609207,92.168633 198.670227,85.556511 
	C196.133530,79.849449 195.704483,73.241341 193.886566,67.168404 
	C192.242096,61.674892 190.870392,55.754368 187.716629,51.163811 
	C185.039734,47.267384 179.990799,45.000572 175.991440,42.012688 
	C175.809021,41.155334 175.626617,40.297985 175.206192,39.208740 
	C174.988281,38.811111 175.008362,38.645378 175.078888,38.234360 
z"/>
<path fill="#918D8B" opacity="1.000000" stroke="none" 
	d="
M44.693752,27.051735 
	C42.975063,29.052849 41.137032,31.261276 38.868706,32.858677 
	C31.790083,37.843578 26.433613,43.873070 23.845413,52.438793 
	C19.720549,66.090141 24.911959,76.961243 33.451286,86.827042 
	C36.866379,90.772621 41.077335,94.032845 44.964443,97.562721 
	C45.564533,98.107658 46.425663,98.860962 47.075405,98.781029 
	C56.866673,97.576317 60.705036,105.715088 64.333168,111.610123 
	C70.484650,121.605103 79.945335,127.642548 88.013382,135.335846 
	C91.293991,138.464066 93.872902,138.605804 97.174545,134.287064 
	C101.448166,128.696945 102.220421,123.787338 99.191513,117.435585 
	C97.560295,114.014862 97.067078,109.753868 97.119041,105.886223 
	C97.252739,95.935181 94.053535,87.033585 89.945396,78.232430 
	C89.025696,76.262085 89.198059,73.742210 89.042297,71.463387 
	C88.720802,66.760002 88.388664,62.050179 88.329636,57.339642 
	C88.306938,55.527977 89.016304,53.707142 89.392105,51.890484 
	C91.125511,52.274235 92.895660,52.544167 94.577644,53.087204 
	C95.491455,53.382229 96.280235,54.107792 97.082710,54.697285 
	C101.875763,58.218258 102.760689,57.986103 105.529274,52.747616 
	C109.571259,45.099724 115.989494,40.640285 124.996269,39.031929 
	C125.813606,39.386391 126.003044,39.650589 126.164406,39.934929 
	C126.147202,40.122978 126.129990,40.311031 125.702354,40.761894 
	C116.780319,44.603928 111.650597,51.184231 109.048904,59.802097 
	C106.575165,67.996147 104.448029,76.294167 102.056831,84.513985 
	C100.030327,91.480148 99.019440,98.374115 101.635452,105.467644 
	C104.869385,114.236702 108.042107,123.037483 110.857239,131.945923 
	C111.642998,134.432419 111.073044,137.347351 111.125008,140.065735 
	C110.719238,141.847488 110.313469,143.629227 109.897858,145.807663 
	C104.725189,152.676880 99.404121,153.364105 89.353157,149.775177 
	C73.669189,144.174820 60.961063,134.182343 48.755680,123.309006 
	C40.865131,116.279602 33.051567,109.137863 24.824516,102.517418 
	C6.957068,88.139168 3.677495,61.320522 18.042973,43.466179 
	C21.488287,39.184124 25.125483,34.963608 29.229643,31.344393 
	C31.227644,29.582472 34.504807,29.271105 37.937809,28.151970 
	C40.145866,27.607042 41.619038,27.213255 43.092209,26.819466 
	C43.520653,26.872807 43.949097,26.926147 44.693752,27.051735 
z"/>
<path fill="#9C9896" opacity="1.000000" stroke="none" 
	d="
M150.010956,274.010864 
	C150.007919,266.797119 150.008438,266.792084 142.823456,266.054382 
	C140.823090,265.849030 138.818649,265.683044 136.816071,265.498993 
	C136.868881,265.013458 136.921692,264.527893 136.974487,264.042358 
	C139.226044,264.350769 141.469070,264.764465 143.730789,264.947266 
	C149.828186,265.440216 150.003296,265.235840 150.013260,258.895172 
	C150.014832,257.903442 150.005142,256.911713 150.241272,255.460403 
	C150.652145,255.000961 150.822403,255.001083 151.458038,255.000732 
	C156.061600,255.000259 160.199783,255.000259 164.337982,255.000259 
	C164.286499,254.218460 164.235016,253.436661 164.183533,252.654877 
	C159.761429,253.109741 155.339325,253.564621 150.713486,253.896179 
	C150.261948,253.559753 150.088135,253.297577 149.988312,252.986343 
	C149.996811,248.019516 150.134766,243.047638 149.941360,238.088684 
	C149.876434,236.424194 148.967697,234.792618 148.801453,234.269226 
	C149.260071,230.223297 149.614365,227.097656 150.411972,223.504303 
	C156.519714,223.005844 162.184158,222.975067 167.892441,223.414551 
	C167.963699,244.285263 167.991119,264.685730 168.018524,285.086182 
	C169.129227,291.542328 164.514618,294.949554 159.975052,298.901367 
	C156.158920,299.307648 153.086914,299.605591 150.014923,299.903534 
	C150.009003,295.913452 150.003082,291.923340 150.004486,287.464478 
	C150.011826,286.995697 150.045563,286.978973 150.498764,286.986633 
	C155.368973,286.666962 159.785980,286.339630 164.202972,286.012299 
	C164.140945,285.300171 164.078934,284.588013 164.016907,283.875885 
	C159.358643,284.256927 154.700394,284.637939 150.025421,285.010895 
	C150.008698,285.002808 149.973923,284.988251 149.973907,284.988251 
	C149.984650,282.620209 149.995392,280.252136 150.022980,277.422089 
	C150.039825,276.960083 150.075958,276.923798 150.504456,276.946350 
	C155.934464,276.396027 160.935974,275.823090 165.937485,275.250183 
	C165.877274,274.861908 165.817062,274.473602 165.756851,274.085327 
	C160.532867,274.085327 155.308868,274.085327 150.066376,274.066711 
	C150.047897,274.048096 150.010956,274.010864 150.010956,274.010864 
z"/>
<path fill="#F7F6F2" opacity="1.000000" stroke="none" 
	d="
M182.951416,187.945786 
	C183.287872,187.177628 183.624313,186.409470 184.463593,185.318939 
	C185.512283,183.836319 186.058151,182.676086 186.604004,181.515869 
	C187.040390,180.869965 187.476761,180.224075 188.416275,179.360687 
	C189.945587,180.041565 190.965927,180.946716 191.999405,181.836578 
	C193.242798,182.907196 194.497375,183.964813 195.747101,185.028076 
	C195.807892,185.463943 195.868668,185.899826 195.699677,186.892822 
	C194.738831,189.903915 194.412369,192.195374 197.711258,193.030884 
	C198.120071,195.739899 198.528870,198.448898 198.736755,201.751831 
	C198.937805,203.240204 199.339798,204.134659 199.741791,205.029099 
	C199.810501,205.768326 199.879211,206.507538 199.731537,207.798431 
	C199.921738,209.243286 200.328308,210.136475 200.734879,211.029678 
	C200.791702,211.468628 200.848541,211.907562 200.664810,212.899719 
	C200.849823,214.979111 201.275375,216.505295 201.700943,218.031479 
	C201.779510,220.724747 201.858063,223.417999 201.664124,226.842987 
	C201.610291,230.721512 201.828979,233.868332 202.047638,237.015137 
	C201.986679,239.046600 201.925720,241.078049 201.463394,243.579895 
	C199.970383,244.948334 198.878738,245.846405 197.721848,246.798141 
	C196.162613,245.450760 194.725876,244.209213 193.289139,242.967682 
	C193.235916,239.953415 193.182693,236.939133 193.559998,233.361740 
	C194.239517,230.442719 194.902969,228.037994 194.632675,225.743256 
	C194.293961,222.867630 192.804443,220.125183 192.483643,217.250259 
	C191.317596,206.800690 190.314850,196.357651 182.951416,187.945786 
z"/>
<path fill="#F8F6F1" opacity="1.000000" stroke="none" 
	d="
M103.984848,190.995438 
	C104.029358,190.555267 104.073875,190.115097 104.536720,189.264099 
	C106.317169,187.300232 107.452667,184.869644 109.105614,184.442810 
	C110.735146,184.021988 112.888641,185.630142 114.812256,186.348114 
	C114.080917,188.053238 113.349579,189.758362 112.401466,191.968872 
	C114.661400,195.014206 116.119987,198.563400 111.283409,201.675903 
	C110.395340,202.247391 109.606155,203.518753 109.437119,204.573746 
	C108.224365,212.142563 107.116257,219.730713 106.187698,227.338699 
	C106.089729,228.141479 107.368980,229.112381 108.009277,230.005295 
	C107.954712,234.022476 107.900146,238.039642 107.438934,242.584717 
	C105.916977,244.430283 104.801651,245.747971 103.883522,246.832687 
	C102.116516,245.725204 100.713219,244.845688 99.309921,243.966171 
	C99.254898,235.281860 99.199875,226.597565 99.518394,217.244995 
	C100.269615,213.386887 100.647293,210.197037 101.024963,207.007202 
	C101.049782,206.258240 101.074593,205.509262 101.484528,204.335144 
	C101.917221,202.940475 101.964790,201.970993 102.012367,201.001495 
	C102.390579,198.617477 102.768799,196.233444 103.499275,193.403839 
	C103.895973,192.303970 103.940414,191.649704 103.984848,190.995438 
z"/>
<path fill="#E3E2DA" opacity="1.000000" stroke="none" 
	d="
M108.385742,229.839096 
	C107.368980,229.112381 106.089729,228.141479 106.187698,227.338699 
	C107.116257,219.730713 108.224365,212.142563 109.437119,204.573746 
	C109.606155,203.518753 110.395340,202.247391 111.283409,201.675903 
	C116.119987,198.563400 114.661400,195.014206 112.401466,191.968872 
	C113.349579,189.758362 114.080917,188.053238 114.812256,186.348114 
	C112.888641,185.630142 110.735146,184.021988 109.105614,184.442810 
	C107.452667,184.869644 106.317169,187.300232 104.615623,188.941391 
	C104.874725,184.313889 105.473244,179.598236 105.997551,174.447510 
	C113.129814,176.215485 115.975479,182.318634 118.996239,189.050323 
	C119.242393,190.082504 119.307465,190.491501 119.264572,191.289642 
	C119.121643,192.480545 119.086685,193.282349 119.051720,194.084137 
	C112.485245,205.040176 110.592201,217.347427 108.385742,229.839096 
M115.408775,192.480515 
	C115.408775,192.480515 115.522720,192.410828 115.408775,192.480515 
z"/>
<path fill="#E3E2DA" opacity="1.000000" stroke="none" 
	d="
M182.711212,188.078140 
	C190.314850,196.357651 191.317596,206.800690 192.483643,217.250259 
	C192.804443,220.125183 194.293961,222.867630 194.632675,225.743256 
	C194.902969,228.037994 194.239517,230.442719 193.629959,232.914825 
	C191.547363,225.203217 189.825333,217.375397 188.452820,209.140808 
	C188.617111,208.414368 188.431885,208.094742 188.246643,207.775101 
	C185.579941,202.737595 182.913254,197.700073 180.321152,192.119324 
	C180.684570,190.826569 180.973404,190.077057 181.262238,189.327545 
	C181.665161,188.955215 182.068085,188.582855 182.711212,188.078140 
z"/>
<path fill="#A19C9B" opacity="1.000000" stroke="none" 
	d="
M119.372536,190.900513 
	C119.307465,190.491501 119.242393,190.082504 119.183594,189.363007 
	C123.524971,184.516953 121.835548,178.951080 121.697701,173.707947 
	C121.586090,169.463196 121.071220,165.229019 120.735229,160.990143 
	C121.243179,160.917099 121.751129,160.844055 122.259079,160.771011 
	C122.796082,164.638092 123.360970,168.501556 123.863419,172.373123 
	C124.584564,177.929855 125.318451,183.486359 125.904785,189.057922 
	C126.018494,190.138428 125.480888,191.287476 125.081032,192.771729 
	C124.193756,192.770645 123.469162,192.402740 122.148849,191.929108 
	C120.826271,191.515762 120.099403,191.208145 119.372536,190.900513 
z"/>
<path fill="#8C8886" opacity="1.000000" stroke="none" 
	d="
M181.126526,188.928711 
	C180.973404,190.077057 180.684570,190.826569 180.184021,191.802155 
	C178.937073,192.045654 177.901855,192.063065 176.481232,192.127487 
	C175.755524,191.249893 175.029266,190.278839 175.134094,189.407822 
	C176.284363,179.849686 177.564194,170.307114 179.563339,160.705750 
	C179.563339,164.072113 179.628860,167.440079 179.547409,170.804489 
	C179.435715,175.418091 179.061111,180.031372 179.133560,184.639542 
	C179.154114,185.945740 180.339584,187.233597 181.126526,188.928711 
z"/>
<path fill="#C2C0BE" opacity="1.000000" stroke="none" 
	d="
M168.402069,284.868622 
	C167.991119,264.685730 167.963699,244.285263 167.936890,223.181824 
	C167.937485,222.478867 168.000031,222.008942 168.000031,222.008942 
	C168.000031,222.008942 168.424026,222.018555 168.635834,222.028992 
	C168.826950,242.909958 168.806290,263.780518 168.402069,284.868622 
z"/>
<path fill="#CCCCCB" opacity="1.000000" stroke="none" 
	d="
M132.085999,227.520187 
	C132.435226,228.807587 132.959976,230.554245 132.966263,232.302780 
	C133.030655,250.223831 133.010971,268.145203 132.803284,286.531586 
	C132.591827,286.996674 132.163391,286.989288 132.163391,286.989288 
	C132.115875,267.319641 132.068375,247.649979 132.085999,227.520187 
z"/>
<path fill="#E3E2DA" opacity="1.000000" stroke="none" 
	d="
M195.832764,184.639801 
	C194.497375,183.964813 193.242798,182.907196 191.999405,181.836578 
	C190.965927,180.946716 189.945587,180.041565 188.575165,179.115509 
	C190.197693,177.439682 192.164444,175.791550 194.469513,174.113647 
	C195.178040,177.473099 195.548248,180.862305 195.832764,184.639801 
z"/>
<path fill="#E3E2DA" opacity="1.000000" stroke="none" 
	d="
M193.190125,243.360443 
	C194.725876,244.209213 196.162613,245.450760 197.721848,246.798141 
	C198.878738,245.846405 199.970383,244.948334 201.383148,244.008057 
	C202.282104,247.623154 200.432312,249.821808 197.037170,249.789764 
	C193.403839,249.755524 193.083008,246.653351 193.190125,243.360443 
z"/>
<path fill="#E3E2DA" opacity="1.000000" stroke="none" 
	d="
M99.206963,244.337097 
	C100.713219,244.845688 102.116516,245.725204 103.883522,246.832687 
	C104.801651,245.747971 105.916977,244.430283 107.358894,243.039490 
	C108.864853,246.736679 106.595558,248.912109 103.587700,249.487701 
	C100.600349,250.059402 99.109825,247.724609 99.206963,244.337097 
z"/>
<path fill="#E3E2DA" opacity="1.000000" stroke="none" 
	d="
M202.424377,236.827957 
	C201.828979,233.868332 201.610291,230.721512 201.678726,227.293045 
	C202.244278,230.221176 202.522705,233.430984 202.424377,236.827957 
z"/>
<path fill="#E3E2DA" opacity="1.000000" stroke="none" 
	d="
M100.676865,207.202972 
	C100.647293,210.197037 100.269615,213.386887 99.598816,216.781693 
	C99.646713,213.790695 99.987740,210.594727 100.676865,207.202972 
z"/>
<path fill="#E3E2DA" opacity="1.000000" stroke="none" 
	d="
M197.802841,192.662354 
	C194.412369,192.195374 194.738831,189.903915 195.744476,187.221710 
	C196.644180,188.760254 197.269302,190.527039 197.802841,192.662354 
z"/>
<path fill="#C2BEB7" opacity="1.000000" stroke="none" 
	d="
M139.001617,298.370667 
	C140.875122,298.731171 142.921158,299.407013 144.978180,300.476105 
	C143.050842,300.141571 141.112503,299.413788 139.001617,298.370667 
z"/>
<path fill="#C2BEB7" opacity="1.000000" stroke="none" 
	d="
M150.008698,300.142456 
	C153.086914,299.605591 156.158920,299.307648 159.659271,299.014709 
	C157.014084,299.671509 153.940552,300.323334 150.438171,300.917297 
	C150.009308,300.859406 150.002457,300.381409 150.008698,300.142456 
z"/>
<path fill="#C2BEB7" opacity="1.000000" stroke="none" 
	d="
M132.102112,287.359070 
	C132.163391,286.989288 132.591827,286.996674 132.806274,287.000488 
	C133.674713,289.124695 134.328720,291.245026 134.965485,293.763184 
	C133.979126,292.016968 133.009995,289.872925 132.102112,287.359070 
z"/>
<path fill="#E3E2DA" opacity="1.000000" stroke="none" 
	d="
M201.802917,217.646637 
	C201.275375,216.505295 200.849823,214.979111 200.694305,213.232025 
	C201.277893,214.428024 201.591400,215.844910 201.802917,217.646637 
z"/>
<path fill="#9C9896" opacity="1.000000" stroke="none" 
	d="
M42.911377,26.518530 
	C41.619038,27.213255 40.145866,27.607042 38.262550,27.975616 
	C39.478455,27.372799 41.104500,26.795197 42.911377,26.518530 
z"/>
<path fill="#C2BEB7" opacity="1.000000" stroke="none" 
	d="
M159.884491,34.523354 
	C158.546982,34.771839 156.997452,34.696941 155.247055,34.362251 
	C156.588287,34.134968 158.130356,34.167469 159.884491,34.523354 
z"/>
<path fill="#B3AFAD" opacity="1.000000" stroke="none" 
	d="
M119.264572,191.289642 
	C120.099403,191.208145 120.826271,191.515762 121.833794,191.935822 
	C121.292870,192.644669 120.471291,193.241074 119.350708,193.960815 
	C119.086685,193.282349 119.121643,192.480545 119.264572,191.289642 
z"/>
<path fill="#E3E2DA" opacity="1.000000" stroke="none" 
	d="
M101.682343,201.131042 
	C101.964790,201.970993 101.917221,202.940475 101.565063,203.969177 
	C101.291092,203.105789 101.321709,202.183197 101.682343,201.131042 
z"/>
<path fill="#E3E2DA" opacity="1.000000" stroke="none" 
	d="
M199.832123,204.687439 
	C199.339798,204.134659 198.937805,203.240204 198.789062,202.165527 
	C199.335693,202.772110 199.629074,203.558945 199.832123,204.687439 
z"/>
<path fill="#E3E2DA" opacity="1.000000" stroke="none" 
	d="
M200.832520,210.689392 
	C200.328308,210.136475 199.921738,209.243286 199.767059,208.169464 
	C200.322678,208.775604 200.626404,209.562347 200.832520,210.689392 
z"/>
<path fill="#C2BEB7" opacity="1.000000" stroke="none" 
	d="
M143.634460,34.065914 
	C143.065170,34.537331 142.155655,34.947224 141.088577,35.111446 
	C141.718765,34.578651 142.506500,34.291523 143.634460,34.065914 
z"/>
<path fill="#C2BEB7" opacity="1.000000" stroke="none" 
	d="
M126.455307,39.904499 
	C126.003044,39.650589 125.813606,39.386391 125.405281,38.991905 
	C125.214470,38.841476 125.114250,38.409611 125.059013,38.194931 
	C125.753471,37.980457 126.503159,37.980663 127.622108,38.048496 
	C127.576309,38.702106 127.161255,39.288086 126.455307,39.904499 
z"/>
<path fill="#C2BEB7" opacity="1.000000" stroke="none" 
	d="
M132.684692,37.083023 
	C132.409256,37.545547 131.829163,37.945114 131.091644,38.109425 
	C131.416168,37.589470 131.898102,37.304768 132.684692,37.083023 
z"/>
<path fill="#C2BEB7" opacity="1.000000" stroke="none" 
	d="
M135.907059,295.397644 
	C136.521698,295.527710 137.208542,296.002777 137.920197,296.825806 
	C137.289749,296.696747 136.634506,296.219696 135.907059,295.397644 
z"/>
<path fill="#E3E2DA" opacity="1.000000" stroke="none" 
	d="
M103.678574,191.096207 
	C103.940414,191.649704 103.895973,192.303970 103.577866,192.995743 
	C103.326889,192.421158 103.349586,191.809067 103.678574,191.096207 
z"/>
<path fill="#B1ADA3" opacity="1.000000" stroke="none" 
	d="
M284.931885,46.606281 
	C284.582458,46.404930 284.285431,45.876724 284.020630,45.027412 
	C284.363373,45.230679 284.673828,45.755051 284.931885,46.606281 
z"/>
<path fill="#C2BEB7" opacity="1.000000" stroke="none" 
	d="
M135.658859,36.070824 
	C135.472580,36.403999 134.970978,36.677383 134.169708,36.955086 
	C134.361221,36.643280 134.852386,36.327156 135.658859,36.070824 
z"/>
<path fill="#C2BEB7" opacity="1.000000" stroke="none" 
	d="
M138.704956,35.089447 
	C138.849426,35.438309 138.623642,35.668121 138.065491,35.877457 
	C138.030304,35.656406 138.230804,35.360878 138.704956,35.089447 
z"/>
<path fill="#B1ADA3" opacity="1.000000" stroke="none" 
	d="
M270.072998,30.780785 
	C269.949188,30.830595 269.681274,30.692558 269.262573,30.391422 
	C269.483856,30.127520 269.756287,30.249058 270.072998,30.780785 
z"/>
<path fill="#B1ADA3" opacity="1.000000" stroke="none" 
	d="
M272.146698,31.708010 
	C271.933990,31.830091 271.578705,31.706530 271.124512,31.315058 
	C271.351776,31.185555 271.677948,31.323959 272.146698,31.708010 
z"/>
<path fill="#B1ADA3" opacity="1.000000" stroke="none" 
	d="
M274.028900,32.684105 
	C273.753113,32.834118 273.418732,32.712769 273.048340,32.309402 
	C273.331665,32.155838 273.651001,32.284286 274.028900,32.684105 
z"/>
<path fill="#B1ADA3" opacity="1.000000" stroke="none" 
	d="
M275.018280,33.709309 
	C274.770660,33.806850 274.454987,33.637299 274.082520,33.193516 
	C274.333893,33.093597 274.642090,33.267910 275.018280,33.709309 
z"/>
<path fill="#B1ADA3" opacity="1.000000" stroke="none" 
	d="
M283.940857,43.704865 
	C283.673157,43.794819 283.391907,43.614960 283.069061,43.172783 
	C283.327393,43.085327 283.627380,43.260189 283.940857,43.704865 
z"/>
<path fill="#9C9896" opacity="1.000000" stroke="none" 
	d="
M194.935974,150.268188 
	C195.145782,150.097076 195.434113,150.232849 195.812805,150.650116 
	C195.642822,150.736572 195.346603,150.617722 194.935974,150.268188 
z"/>
<path fill="#B1ADA3" opacity="1.000000" stroke="none" 
	d="
M276.024719,34.710838 
	C275.773773,34.808384 275.456085,34.635456 275.080933,34.187763 
	C275.334991,34.088787 275.646454,34.264572 276.024719,34.710838 
z"/>
<path fill="#F7F6F2" opacity="1.000000" stroke="none" 
	d="
M188.187180,208.050323 
	C188.431885,208.094742 188.617111,208.414368 188.542725,208.800415 
	C188.231308,208.686386 188.179520,208.505966 188.187180,208.050323 
z"/>
<path fill="#C2BEB7" opacity="1.000000" stroke="none" 
	d="
M162.899643,35.699486 
	C162.569748,35.918476 162.326736,35.769802 162.091629,35.301624 
	C162.328781,35.207211 162.624466,35.323780 162.899643,35.699486 
z"/>
<path fill="#B1ADA3" opacity="1.000000" stroke="none" 
	d="
M277.013733,35.718643 
	C276.783661,35.802639 276.480743,35.618855 276.095215,35.174076 
	C276.322052,35.092346 276.631470,35.271606 277.013733,35.718643 
z"/>
<path fill="#B1ADA3" opacity="1.000000" stroke="none" 
	d="
M278.022980,36.708611 
	C277.776276,36.803860 277.464722,36.626888 277.085602,36.179550 
	C277.331421,36.084919 277.644745,36.260654 278.022980,36.708611 
z"/>
<path fill="#B1ADA3" opacity="1.000000" stroke="none" 
	d="
M283.011963,42.706940 
	C282.785431,42.756523 282.487030,42.525486 282.113770,42.004440 
	C282.339294,41.951725 282.639709,42.189018 283.011963,42.706940 
z"/>
<path fill="#B1ADA3" opacity="1.000000" stroke="none" 
	d="
M279.024933,37.709488 
	C278.779053,37.804939 278.468018,37.628036 278.087830,37.181656 
	C278.332367,37.087162 278.646088,37.262150 279.024933,37.709488 
z"/>
<path fill="#B1ADA3" opacity="1.000000" stroke="none" 
	d="
M281.963654,40.706192 
	C281.667023,40.810280 281.366699,40.638660 281.053101,40.189957 
	C281.346527,40.085411 281.653259,40.257946 281.963654,40.706192 
z"/>
<path fill="#B1ADA3" opacity="1.000000" stroke="none" 
	d="
M281.022430,39.699829 
	C280.770599,39.801052 280.457672,39.629795 280.082672,39.183922 
	C280.334198,39.081989 280.647736,39.254669 281.022430,39.699829 
z"/>
<path fill="#B1ADA3" opacity="1.000000" stroke="none" 
	d="
M280.017212,38.714951 
	C279.781738,38.802753 279.477142,38.620735 279.093414,38.175831 
	C279.325562,38.090340 279.636841,38.267738 280.017212,38.714951 
z"/>
<path fill="#A7A2A1" opacity="1.000000" stroke="none" 
	d="
M111.494972,140.037750 
	C111.073044,137.347351 111.642998,134.432419 110.857239,131.945923 
	C108.042107,123.037483 104.869385,114.236702 101.635452,105.467644 
	C99.019440,98.374115 100.030327,91.480148 102.056831,84.513985 
	C104.448029,76.294167 106.575165,67.996147 109.048904,59.802097 
	C111.650597,51.184231 116.780319,44.603928 125.661469,41.042187 
	C125.485382,42.244976 125.241028,43.768753 124.347939,44.563694 
	C114.451202,53.372818 112.748192,65.943314 109.011711,77.577965 
	C108.005333,80.711594 107.097206,83.876648 106.126633,87.021927 
	C104.584259,92.020248 105.945900,93.756416 110.468300,96.259926 
	C113.271637,97.811798 115.092178,101.139008 116.810326,103.680885 
	C114.843002,102.493469 113.419228,101.294472 112.029694,100.124313 
	C110.678459,103.183540 109.583191,105.663277 108.227104,108.733513 
	C110.382614,110.235786 112.749062,111.885063 115.673615,113.923317 
	C113.649834,114.427986 112.494843,114.716011 110.627815,115.181595 
	C114.496468,117.808807 116.590729,117.354233 117.016342,113.349281 
	C117.273460,110.929832 117.015640,108.455666 116.989197,106.006081 
	C121.426826,108.132988 119.757896,112.418488 119.496902,115.423431 
	C118.905975,122.226997 117.366669,128.979294 115.753639,135.641190 
	C115.348793,137.313217 113.207954,138.564896 111.494972,140.037750 
z"/>
<path fill="#8B8685" opacity="1.000000" stroke="none" 
	d="
M116.965408,105.673218 
	C117.015640,108.455666 117.273460,110.929832 117.016342,113.349281 
	C116.590729,117.354233 114.496468,117.808807 110.627815,115.181595 
	C112.494843,114.716011 113.649834,114.427986 115.673615,113.923317 
	C112.749062,111.885063 110.382614,110.235786 108.227104,108.733513 
	C109.583191,105.663277 110.678459,103.183540 112.029694,100.124313 
	C113.419228,101.294472 114.843002,102.493469 116.546524,103.851410 
	C116.864723,104.453682 116.903175,104.897018 116.965408,105.673218 
z"/>
<path fill="#8B8685" opacity="1.000000" stroke="none" 
	d="
M167.579102,221.992081 
	C168.000031,222.008942 167.937485,222.478867 167.893036,222.711578 
	C162.184158,222.975067 156.519714,223.005844 150.386169,223.063110 
	C149.802292,222.771454 149.687531,222.453308 149.738754,222.014313 
	C155.655884,221.920715 161.407043,221.947968 167.579102,221.992081 
z"/>
<path fill="#9F9A99" opacity="1.000000" stroke="none" 
	d="
M139.651291,155.963806 
	C135.558258,157.620438 131.819748,159.189713 128.109741,160.747025 
	C130.412491,155.890823 135.705246,153.512527 142.506241,154.633240 
	C141.414749,155.175919 140.710281,155.526184 139.651291,155.963806 
z"/>
<path fill="#9F9A99" opacity="1.000000" stroke="none" 
	d="
M133.969528,180.969177 
	C135.922592,175.836792 140.984039,177.379425 144.691650,176.083099 
	C146.000763,175.625397 147.596573,175.987625 149.498993,175.961609 
	C149.936493,175.947708 149.979782,175.983582 149.998199,176.317139 
	C150.047333,177.070633 150.078049,177.490555 150.108749,177.910492 
	C150.108749,177.910492 150.054916,177.956146 150.027252,177.978073 
	C144.623093,177.417618 139.550430,178.419373 134.380753,180.959015 
	C133.995911,180.996246 133.969528,180.969177 133.969528,180.969177 
z"/>
<path fill="#888481" opacity="1.000000" stroke="none" 
	d="
M149.789810,153.060974 
	C156.458755,152.987747 162.825226,153.585739 168.417038,157.514389 
	C162.544800,156.351562 156.672546,155.188736 150.367859,154.049164 
	C149.763840,153.883087 149.572845,153.706390 149.435196,153.494949 
	C149.403473,153.446213 149.554565,153.278473 149.789810,153.060974 
z"/>
<path fill="#A29E9D" opacity="1.000000" stroke="none" 
	d="
M149.523041,252.991852 
	C150.088135,253.297577 150.261948,253.559753 150.735992,254.141296 
	C150.962234,254.509720 150.992661,255.001221 150.992661,255.001221 
	C150.822403,255.001083 150.652145,255.000961 150.226196,255.003540 
	C145.218414,255.006271 140.466324,255.006271 135.714218,255.006271 
	C135.717941,254.336639 135.721664,253.666992 135.725388,252.997360 
	C140.169510,252.997360 144.613647,252.997360 149.523041,252.991852 
z"/>
<path fill="#A29E9D" opacity="1.000000" stroke="none" 
	d="
M149.994263,287.003052 
	C145.513580,286.736664 141.050446,286.462860 136.587311,286.189087 
	C136.613159,285.543457 136.638992,284.897827 136.664841,284.252197 
	C140.804733,284.500488 144.944641,284.748810 149.529236,284.992676 
	C149.973923,284.988251 150.008698,285.002808 150.010376,285.337341 
	C150.023224,286.107605 150.034393,286.543274 150.045563,286.978973 
	C150.045563,286.978973 150.011826,286.995697 149.994263,287.003052 
z"/>
<path fill="#A29E9D" opacity="1.000000" stroke="none" 
	d="
M150.004852,212.996536 
	C145.220657,213.009842 140.462738,213.009842 135.704819,213.009842 
	C135.707611,212.336182 135.710403,211.662506 135.713181,210.988846 
	C140.152512,210.988846 144.591843,210.988846 149.492493,210.982742 
	C149.953827,210.976639 149.999695,210.999969 150.009735,211.333466 
	C150.040543,212.095871 150.061310,212.524780 150.082062,212.953674 
	C150.082062,212.953674 150.031128,212.983231 150.004852,212.996536 
z"/>
<path fill="#9C9896" opacity="1.000000" stroke="none" 
	d="
M150.021759,276.978210 
	C145.373688,276.338989 140.743698,275.681580 136.113693,275.024170 
	C136.137177,274.688477 136.160675,274.352783 136.184158,274.017090 
	C140.481842,274.017090 144.779541,274.017090 149.544098,274.013977 
	C150.010956,274.010864 150.047897,274.048096 150.039581,274.420227 
	C150.046158,275.502869 150.061050,276.213318 150.075958,276.923798 
	C150.075958,276.923798 150.039825,276.960083 150.021759,276.978210 
z"/>
<path fill="#9F9A99" opacity="1.000000" stroke="none" 
	d="
M149.953262,190.038483 
	C144.302750,191.002243 138.676941,191.945145 133.051117,192.888046 
	C132.949661,192.324371 132.848206,191.760696 132.746765,191.197037 
	C138.171478,190.449982 143.596207,189.702927 149.460617,188.934357 
	C149.900314,188.912827 149.951889,188.959885 149.974030,189.225555 
	C149.996155,189.491241 150.028519,189.977310 150.028519,189.977310 
	C150.028519,189.977310 149.977951,190.017624 149.953262,190.038483 
z"/>
<path fill="#9C9896" opacity="1.000000" stroke="none" 
	d="
M149.993988,165.006104 
	C144.875854,166.138031 139.772812,167.254761 134.669754,168.371506 
	C138.900772,165.027954 143.817474,163.918472 149.526764,163.970459 
	C149.960693,163.959793 149.991547,163.991348 150.004333,164.241409 
	C150.017120,164.491470 150.039017,164.960739 150.039017,164.960739 
	C150.039017,164.960739 150.009064,164.990921 149.993988,165.006104 
z"/>
<path fill="#9F9A99" opacity="1.000000" stroke="none" 
	d="
M149.964355,201.028900 
	C144.747498,201.772034 139.556305,202.493988 134.365112,203.215958 
	C134.287247,202.695480 134.209381,202.175003 134.131500,201.654526 
	C139.103577,201.091721 144.075653,200.528931 149.487030,199.952209 
	C149.926346,199.938293 149.977066,199.981384 149.995667,200.237946 
	C150.014282,200.494507 150.042007,200.966171 150.042007,200.966171 
	C150.042007,200.966171 149.990036,201.007721 149.964355,201.028900 
z"/>
<path fill="#9C9896" opacity="1.000000" stroke="none" 
	d="
M131.244812,172.234192 
	C130.259949,172.885803 129.517166,173.305756 128.774384,173.725708 
	C128.458740,173.356491 128.143082,172.987259 127.827431,172.618042 
	C129.089737,171.351059 130.352036,170.084091 131.614349,168.817123 
	C131.986206,169.134415 132.358063,169.451721 132.729919,169.769012 
	C132.315567,170.513535 131.901215,171.258041 131.244812,172.234192 
z"/>
<path fill="#9F9A99" opacity="1.000000" stroke="none" 
	d="
M129.533035,184.295441 
	C130.224701,183.865433 130.782211,183.692719 131.339706,183.520020 
	C131.240143,184.085907 131.140594,184.651810 131.041031,185.217697 
	C130.493637,184.996033 129.946259,184.774368 129.533035,184.295441 
z"/>
<path fill="#9F9A99" opacity="1.000000" stroke="none" 
	d="
M134.007233,181.011108 
	C133.574707,181.147232 133.130859,181.268478 132.686996,181.389740 
	C132.955032,181.257584 133.223053,181.125427 133.730316,180.981216 
	C133.969528,180.969177 133.995911,180.996246 134.007233,181.011108 
z"/>
<path fill="#918C8B" opacity="1.000000" stroke="none" 
	d="
M176.032135,42.363457 
	C179.990799,45.000572 185.039734,47.267384 187.716629,51.163811 
	C190.870392,55.754368 192.242096,61.674892 193.886566,67.168404 
	C195.704483,73.241341 196.133530,79.849449 198.670227,85.556511 
	C201.609207,92.168633 201.401093,98.462921 199.457138,104.824600 
	C196.761200,113.647163 193.330978,122.242859 190.431702,131.007339 
	C189.579590,133.583282 189.461304,136.401978 189.012604,139.547043 
	C188.064880,139.528748 186.395554,139.221603 186.265228,138.594574 
	C184.388229,129.563950 182.194092,120.542519 181.283127,111.398636 
	C180.964767,108.203072 183.930435,104.680328 185.701080,101.558762 
	C185.347092,105.590736 184.185760,109.369614 184.175735,113.151535 
	C184.166382,116.698906 186.411148,117.243927 188.396545,115.727669 
	C187.461395,113.868576 186.733414,112.421318 186.403549,111.060898 
	C188.228516,110.107758 190.187592,109.330971 190.881180,107.928391 
	C191.292435,107.096733 189.707535,105.277939 189.066559,103.580643 
	C189.839600,102.336403 190.566238,101.414513 191.663376,100.022545 
	C189.364105,100.022545 187.733978,100.022545 186.103851,100.022545 
	C187.390137,98.724838 188.446518,96.897774 190.002853,96.221916 
	C196.425369,93.432884 196.561905,93.194344 194.477203,86.813782 
	C191.223648,76.855652 188.574936,66.674347 184.811203,56.918919 
	C182.843719,51.819313 179.044678,47.426342 176.032135,42.363457 
z"/>
<path fill="#7B7774" opacity="1.000000" stroke="none" 
	d="
M186.084229,100.272339 
	C187.733978,100.022545 189.364105,100.022545 191.663376,100.022545 
	C190.566238,101.414513 189.839600,102.336403 188.794144,103.803658 
	C187.652039,106.557365 186.828735,108.765717 186.005432,110.974060 
	C186.733414,112.421318 187.461395,113.868576 188.396545,115.727669 
	C186.411148,117.243927 184.166382,116.698906 184.175735,113.151535 
	C184.185760,109.369614 185.347092,105.590736 186.018494,101.416336 
	C186.042328,100.855469 186.053467,100.688797 186.084229,100.272339 
z"/>
<path fill="#8D8987" opacity="1.000000" stroke="none" 
	d="
M150.460388,164.975922 
	C150.039017,164.960739 150.017120,164.491470 150.019775,164.256866 
	C159.437668,163.705185 167.903473,165.613953 173.441238,174.421295 
	C166.775421,169.134338 159.698303,164.888443 150.460388,164.975922 
z"/>
<path fill="#898483" opacity="1.000000" stroke="none" 
	d="
M150.555206,177.936523 
	C150.078049,177.490555 150.047333,177.070633 150.020386,176.334381 
	C154.262466,176.382172 158.640137,176.225754 162.685898,177.308960 
	C165.046951,177.941101 166.877258,180.555618 168.973297,182.639008 
	C169.000244,182.999771 168.985519,183.014816 168.985519,183.014816 
	C163.465958,179.639740 157.744019,176.985092 150.555206,177.936523 
z"/>
<path fill="#8B8685" opacity="1.000000" stroke="none" 
	d="
M150.540329,212.969025 
	C150.061310,212.524780 150.040543,212.095871 150.032684,211.345093 
	C155.132980,211.023193 160.220352,211.023193 165.307724,211.023193 
	C165.306000,211.676926 165.304276,212.330658 165.302551,212.984390 
	C160.534561,212.984390 155.766571,212.984390 150.540329,212.969025 
z"/>
<path fill="#847F7E" opacity="1.000000" stroke="none" 
	d="
M150.460632,189.987000 
	C150.028519,189.977310 149.996155,189.491241 150.000961,189.247772 
	C156.115860,188.085083 161.945663,188.855377 167.351700,192.327774 
	C161.865387,191.550751 156.379074,190.773727 150.460632,189.987000 
z"/>
<path fill="#847F7E" opacity="1.000000" stroke="none" 
	d="
M150.475922,200.980270 
	C150.042007,200.966171 150.014282,200.494507 150.021729,200.258636 
	C155.105560,200.350433 160.181931,200.678085 165.258301,201.005737 
	C165.201706,201.612228 165.145126,202.218719 165.088531,202.825211 
	C160.362289,202.214935 155.636063,201.604645 150.475922,200.980270 
z"/>
<path fill="#888481" opacity="1.000000" stroke="none" 
	d="
M175.252502,162.559357 
	C175.010193,163.379578 174.621750,163.902634 174.233322,164.425674 
	C172.844254,162.613876 171.455185,160.802078 170.066116,158.990280 
	C170.437515,158.669052 170.808914,158.347809 171.180313,158.026581 
	C172.488998,159.438431 173.797699,160.850296 175.252502,162.559357 
z"/>
<path fill="#E3E2DA" opacity="1.000000" stroke="none" 
	d="
M186.323364,181.679916 
	C186.058151,182.676086 185.512283,183.836319 184.593994,185.032166 
	C184.828613,183.993179 185.435654,182.918564 186.323364,181.679916 
z"/>
<path fill="#898483" opacity="1.000000" stroke="none" 
	d="
M169.007935,182.992432 
	C169.710449,183.477600 170.405289,183.970108 171.100113,184.462631 
	C170.859299,184.746841 170.618500,185.031067 170.377701,185.315277 
	C169.934433,184.753952 169.491165,184.192612 169.016708,183.323059 
	C168.985519,183.014816 169.000244,182.999771 169.007935,182.992432 
z"/>
<path fill="#8D8987" opacity="1.000000" stroke="none" 
	d="
M150.504456,276.946350 
	C150.061050,276.213318 150.046158,275.502869 150.058060,274.438843 
	C155.308868,274.085327 160.532867,274.085327 165.756851,274.085327 
	C165.817062,274.473602 165.877274,274.861908 165.937485,275.250183 
	C160.935974,275.823090 155.934464,276.396027 150.504456,276.946350 
z"/>
<path fill="#918C8B" opacity="1.000000" stroke="none" 
	d="
M150.498764,286.986633 
	C150.034393,286.543274 150.023224,286.107605 150.027084,285.345459 
	C154.700394,284.637939 159.358643,284.256927 164.016907,283.875885 
	C164.078934,284.588013 164.140945,285.300171 164.202972,286.012299 
	C159.785980,286.339630 155.368973,286.666962 150.498764,286.986633 
z"/>
<path fill="#8B8685" opacity="1.000000" stroke="none" 
	d="
M151.458038,255.000732 
	C150.992661,255.001221 150.962234,254.509720 150.939728,254.264603 
	C155.339325,253.564621 159.761429,253.109741 164.183533,252.654877 
	C164.235016,253.436661 164.286499,254.218460 164.337982,255.000259 
	C160.199783,255.000259 156.061600,255.000259 151.458038,255.000732 
z"/>
<path fill="#F8F6F1" opacity="1.000000" stroke="none" 
	d="
M115.465744,192.445679 
	C115.522720,192.410828 115.408775,192.480515 115.465744,192.445679 
z"/>
<path fill="#24201C" opacity="1.000000" stroke="none" 
	d="
M186.403549,111.060898 
	C186.828735,108.765717 187.652039,106.557365 188.747742,104.126007 
	C189.707535,105.277939 191.292435,107.096733 190.881180,107.928391 
	C190.187592,109.330971 188.228516,110.107758 186.403549,111.060898 
z"/>
</svg>