<svg version="1.1" id="Layer_1" xmlns="http://www.w3.org/2000/svg" xmlns:xlink="http://www.w3.org/1999/xlink" x="0px" y="0px"
	 width="100%" viewBox="0 0 190 228" enable-background="new 0 0 190 228" xml:space="preserve">
<path fill="#000000" opacity="1.000000" stroke="none" 
	d="
M1.000000,89.000000 
	C1.000000,59.333336 1.000000,30.166670 1.000000,1.000004 
	C64.333328,1.000003 127.666656,1.000003 191.000000,1.000001 
	C191.000000,76.999992 191.000000,152.999985 191.000000,228.999969 
	C127.666679,228.999985 64.333359,228.999985 1.000021,229.000000 
	C1.000000,182.500000 1.000000,136.000000 1.000000,89.000000 
M87.169716,203.662308 
	C87.753357,203.860931 88.336998,204.059555 89.410698,204.788849 
	C96.594688,208.563858 103.191147,207.917343 109.817932,202.104218 
	C112.279541,198.106583 114.741150,194.108963 117.748756,189.682358 
	C118.517883,187.512756 119.287018,185.343140 120.802681,182.692978 
	C120.868111,175.524490 120.847420,168.337906 125.061211,162.051147 
	C125.061211,162.051147 125.057800,162.129578 125.639839,161.850067 
	C125.791573,161.235245 125.943306,160.620407 126.569588,159.895462 
	C126.910011,159.696182 127.005554,159.414001 127.010078,158.301468 
	C129.629395,148.853485 132.248703,139.405502 135.177155,129.325607 
	C136.984360,126.859612 138.791550,124.393608 141.162369,121.590385 
	C142.454788,117.407188 143.747208,113.223999 145.705902,109.340065 
	C147.514236,109.471222 149.322556,109.602379 151.130890,109.733536 
	C150.676132,109.816177 150.221375,109.898811 149.766602,109.981453 
	C148.796387,108.282898 147.826172,106.584343 146.992493,104.143036 
	C148.866776,100.702187 149.021149,95.907913 154.872253,94.978836 
	C159.017914,92.421494 164.183487,90.693443 167.085236,87.124672 
	C172.251221,80.771240 176.831314,73.653542 180.159576,66.188126 
	C182.660507,60.578426 183.306015,53.967682 183.865295,47.720905 
	C184.316910,42.676548 181.042267,40.242924 176.060562,40.940582 
	C172.524979,41.435719 169.023880,42.201950 165.525589,42.934242 
	C152.722824,45.614227 141.607162,50.537762 136.922043,64.214630 
	C136.555878,65.283569 135.077438,65.971489 133.990372,66.075745 
	C131.536591,58.541428 130.203644,51.061031 131.730026,42.962109 
	C132.756500,37.515633 131.938492,31.721535 131.877365,25.448484 
	C131.246552,24.628765 130.615723,23.809044 129.930969,22.280846 
	C127.745903,14.904445 121.445450,17.971861 116.966698,17.755789 
	C113.022285,17.565495 112.562027,21.806259 112.031258,25.989302 
	C111.910561,40.433590 107.873466,47.106224 96.284950,50.726654 
	C93.541855,48.542919 90.502396,46.638592 88.121559,44.113319 
	C84.026230,39.769520 83.701042,34.238434 83.893501,28.521221 
	C83.967522,26.322407 82.714294,24.078913 81.801682,21.274797 
	C80.855965,20.860556 79.910255,20.446312 78.938759,19.285120 
	C76.098564,15.110489 72.238319,18.116579 68.945877,18.220379 
	C67.918625,18.252764 66.987274,21.326849 65.513939,23.361444 
	C65.412628,23.949297 65.311310,24.537148 64.778084,25.781151 
	C64.335251,30.176033 63.323315,34.602497 63.565086,38.959389 
	C64.110542,48.788616 65.055740,58.564041 60.256210,67.666679 
	C59.519089,66.621605 58.481937,65.676910 58.093307,64.515251 
	C55.482830,56.712181 51.225960,50.350624 43.065174,47.610653 
	C35.950081,45.221767 28.839596,42.602989 21.518288,41.108837 
	C14.965996,39.771637 12.461082,42.030216 12.013584,47.473789 
	C11.202086,57.345234 14.502647,66.414200 19.318069,74.460777 
	C23.260046,81.047829 29.144896,86.594917 34.744904,92.006508 
	C36.982716,94.169022 40.766998,94.731216 44.200382,96.695175 
	C46.323792,99.219566 48.545002,101.699936 46.397301,105.361847 
	C46.307938,105.514214 47.462509,106.396149 48.155529,107.645760 
	C49.294518,109.536896 50.424583,111.433479 51.574558,113.317909 
	C53.339767,116.210510 55.118675,119.094749 57.004089,122.717484 
	C58.057011,125.127968 59.109932,127.538460 60.027607,130.747360 
	C60.349529,131.651306 60.706112,132.544601 60.987991,133.460861 
	C63.713394,142.320007 66.426247,151.182983 69.097801,160.529846 
	C69.265854,160.850601 69.530907,161.013718 70.177238,161.691925 
	C73.677040,165.567352 74.425385,170.151093 74.065376,175.209106 
	C73.903328,177.486008 74.659691,179.828293 74.977478,182.923141 
	C76.971336,187.327286 78.965195,191.731445 80.952736,196.819794 
	C82.346336,198.281403 83.739929,199.742996 85.562988,201.478836 
	C85.658600,201.338455 85.754211,201.198074 85.547882,201.675064 
	C85.994949,202.158905 86.442024,202.642761 87.004494,203.055405 
	C87.004494,203.055405 86.879166,203.104645 87.169716,203.662308 
z"/>
<path fill="#B07B3D" opacity="1.000000" stroke="none" 
	d="
M120.056145,183.173538 
	C119.287018,185.343140 118.517883,187.512756 117.150940,189.996109 
	C111.713936,193.282608 106.874741,196.255356 101.620193,199.193604 
	C99.818962,199.131180 98.433083,199.103287 97.038864,198.728897 
	C97.020142,197.920380 97.009766,197.458359 97.000793,196.528107 
	C96.999161,153.374268 96.996124,110.688667 97.005432,67.998177 
	C97.017769,67.993286 97.044693,67.980858 97.443436,67.985207 
	C104.466156,69.336502 110.069542,72.550697 112.962395,78.709709 
	C116.904480,87.102577 121.574539,93.595764 132.283691,92.296341 
	C133.730423,92.120789 135.442444,94.131508 136.952118,95.457474 
	C135.178116,99.196335 133.483627,102.607620 131.381683,106.017349 
	C127.839821,105.138954 124.722961,104.191750 121.566277,103.404129 
	C118.082062,102.534782 114.588562,101.353340 111.049477,101.143036 
	C106.785744,100.889679 104.004448,104.304565 104.756912,107.778641 
	C105.618317,111.755638 108.697632,115.252243 110.848251,119.377533 
	C113.312119,128.190445 113.077156,136.621521 112.147415,145.263000 
	C111.223419,153.850967 113.471893,162.000473 118.852966,169.477554 
	C119.274361,174.324768 119.665253,178.749146 120.056145,183.173538 
M101.218849,167.815292 
	C101.812698,169.353439 102.054474,171.229141 103.107315,172.327209 
	C104.015457,173.274384 106.229118,174.128647 107.206184,173.657242 
	C112.394600,171.153992 114.399429,163.011002 111.337372,158.134384 
	C109.074707,154.530914 105.668983,153.862259 103.448174,157.377014 
	C101.776955,160.021973 101.813156,163.745773 101.218849,167.815292 
z"/>
<path fill="#A87339" opacity="1.000000" stroke="none" 
	d="
M137.031616,95.129890 
	C135.442444,94.131508 133.730423,92.120789 132.283691,92.296341 
	C121.574539,93.595764 116.904480,87.102577 112.962395,78.709709 
	C110.069542,72.550697 104.466156,69.336502 97.433617,67.530670 
	C97.002357,61.682697 96.979668,56.293613 96.956985,50.904526 
	C107.873466,47.106224 111.910561,40.433590 112.333588,25.459919 
	C113.092506,24.665445 113.549103,24.400354 114.408081,24.123053 
	C116.542908,24.416500 118.922096,24.109430 119.894157,25.135468 
	C123.792702,29.250490 127.944939,25.973808 131.945679,26.082958 
	C131.938492,31.721535 132.756500,37.515633 131.730026,42.962109 
	C130.203644,51.061031 131.536591,58.541428 133.870071,66.710571 
	C135.510559,72.225098 137.271347,77.104790 139.035492,82.331329 
	C140.022720,84.074028 141.006577,85.469902 141.995392,87.162216 
	C142.007263,87.656197 142.014191,87.853737 142.000854,88.413895 
	C140.330917,90.894302 138.681259,93.012093 137.031616,95.129890 
z"/>
<path fill="#B77E40" opacity="1.000000" stroke="none" 
	d="
M96.620972,50.815590 
	C96.979668,56.293613 97.002357,61.682697 97.034866,67.526321 
	C97.044693,67.980858 97.017769,67.993286 96.634773,68.019218 
	C94.594063,68.754623 92.838066,69.296814 91.295853,70.202866 
	C85.012390,73.894424 81.677376,80.020744 78.048622,86.013969 
	C76.629829,88.357239 74.168594,90.653641 71.660797,91.623947 
	C67.288155,93.315781 62.511532,93.963501 57.614502,94.875946 
	C55.883263,92.169991 54.441761,89.636940 53.273758,86.904907 
	C54.485809,85.458427 55.424362,84.210930 56.613167,82.716187 
	C58.091930,78.976112 59.404232,75.509384 60.504337,71.976585 
	C60.899220,70.708504 60.782627,69.281136 60.899467,67.926468 
	C65.055740,58.564041 64.110542,48.788616 63.565086,38.959389 
	C63.323315,34.602497 64.335251,30.176033 65.343216,25.477154 
	C72.403214,29.469017 77.051735,24.772148 82.065819,21.855778 
	C82.714294,24.078913 83.967522,26.322407 83.893501,28.521221 
	C83.701042,34.238434 84.026230,39.769520 88.121559,44.113319 
	C90.502396,46.638592 93.541855,48.542919 96.620972,50.815590 
z"/>
<path fill="#917A5E" opacity="1.000000" stroke="none" 
	d="
M139.032135,81.984489 
	C137.271347,77.104790 135.510559,72.225098 133.932861,67.090942 
	C135.077438,65.971489 136.555878,65.283569 136.922043,64.214630 
	C141.607162,50.537762 152.722824,45.614227 165.525589,42.934242 
	C169.023880,42.201950 172.524979,41.435719 176.060562,40.940582 
	C181.042267,40.242924 184.316910,42.676548 183.865295,47.720905 
	C183.306015,53.967682 182.660507,60.578426 180.159576,66.188126 
	C176.831314,73.653542 172.251221,80.771240 167.085236,87.124672 
	C164.183487,90.693443 159.017914,92.421494 154.100845,94.941254 
	C148.357361,96.568329 147.220474,91.396370 143.998627,89.477264 
	C143.262131,88.830544 142.641632,88.440910 142.021118,88.051277 
	C142.014191,87.853737 142.007263,87.656197 142.374313,87.174545 
	C143.504929,86.860802 144.261551,86.831177 145.414520,86.847939 
	C150.525864,86.643539 158.524460,81.917938 158.491638,78.128265 
	C158.452744,73.637215 159.853012,70.435120 163.398972,67.667870 
	C161.594864,66.349762 160.362885,65.449654 158.600876,64.162285 
	C160.826050,62.468048 162.731598,61.204575 164.408478,59.688236 
	C166.120239,58.140354 167.607437,56.344135 169.561569,54.264309 
	C155.086166,50.404861 146.774826,52.774326 144.182144,65.101028 
	C143.058105,70.445183 141.413132,75.679779 139.824493,81.116287 
	C139.423172,81.492577 139.219147,81.731262 139.032135,81.984489 
z"/>
<path fill="#9E8568" opacity="1.000000" stroke="none" 
	d="
M60.577835,67.796570 
	C60.782627,69.281136 60.899220,70.708504 60.504337,71.976585 
	C59.404232,75.509384 58.091930,78.976112 56.478981,82.443924 
	C55.820602,81.887970 55.546665,81.357010 55.147144,80.474167 
	C53.626789,74.832367 51.973171,69.594803 50.890697,64.241737 
	C48.579288,52.811363 40.968166,51.107197 29.933453,52.730267 
	C26.765001,53.196304 26.361971,54.993835 28.537497,57.130508 
	C30.897829,59.448685 33.516975,61.501907 35.977497,63.721401 
	C36.271393,63.986507 36.278450,64.569603 36.433395,65.051796 
	C35.038658,65.695129 33.781189,66.275146 31.951159,67.119270 
	C33.949825,69.321518 35.577904,71.115433 37.205986,72.909348 
	C36.602375,75.224770 36.184486,77.796906 37.253399,79.337372 
	C40.479073,83.986084 44.756828,87.349442 51.253819,86.953903 
	C51.729553,87.141281 51.917435,87.222260 52.009388,87.606918 
	C50.977371,89.292419 50.041283,90.674225 48.870689,92.289261 
	C48.364525,93.562439 48.092869,94.602394 47.423931,95.680206 
	C45.966877,95.819344 44.907097,95.920609 43.847321,96.021881 
	C40.766998,94.731216 36.982716,94.169022 34.744904,92.006508 
	C29.144896,86.594917 23.260046,81.047829 19.318069,74.460777 
	C14.502647,66.414200 11.202086,57.345234 12.013584,47.473789 
	C12.461082,42.030216 14.965996,39.771637 21.518288,41.108837 
	C28.839596,42.602989 35.950081,45.221767 43.065174,47.610653 
	C51.225960,50.350624 55.482830,56.712181 58.093307,64.515251 
	C58.481937,65.676910 59.519089,66.621605 60.577835,67.796570 
z"/>
<path fill="#C39F79" opacity="1.000000" stroke="none" 
	d="
M118.822479,169.054733 
	C113.471893,162.000473 111.223419,153.850967 112.147415,145.263000 
	C113.077156,136.621521 113.312119,128.190445 110.983292,119.050873 
	C113.539856,113.415512 118.594147,113.625633 122.846764,112.066208 
	C126.077141,110.881645 128.948807,108.718834 132.235535,106.994476 
	C132.661316,106.998711 132.831635,106.999763 133.001511,107.399460 
	C133.003082,108.860733 133.005066,109.923355 132.865540,111.265717 
	C132.290955,112.235214 131.374969,113.425285 131.495438,113.541557 
	C134.463165,116.406021 137.540771,119.156654 140.598755,121.927605 
	C138.791550,124.393608 136.984360,126.859612 134.710831,129.775146 
	C133.764130,130.658615 133.011581,131.006897 132.844101,131.539246 
	C130.241577,139.811295 127.662430,148.092117 125.269890,156.426056 
	C125.078278,157.093536 126.294319,158.165100 126.856209,159.048889 
	C127.005554,159.414001 126.910011,159.696182 126.129608,160.179321 
	C125.479019,161.018646 125.268410,161.574112 125.057800,162.129578 
	C125.057800,162.129578 125.061211,162.051147 124.750443,162.093597 
	C122.567268,164.442291 120.694878,166.748520 118.822479,169.054733 
z"/>
<path fill="#D4B187" opacity="1.000000" stroke="none" 
	d="
M60.162853,129.948944 
	C59.109932,127.538460 58.057011,125.127968 57.251793,122.193161 
	C59.888885,119.065674 62.278278,116.462509 65.051407,113.948044 
	C68.106247,114.412361 70.778000,115.096092 73.448273,115.090332 
	C77.313812,115.081993 81.462952,118.620811 81.664818,122.503906 
	C81.730446,123.766335 82.041039,125.016045 82.223709,126.720184 
	C82.486961,132.443985 82.766090,137.719177 82.707901,143.137085 
	C80.352592,145.719925 80.122536,148.004288 82.938034,150.341003 
	C82.874588,151.084778 82.830956,151.509171 82.466248,151.989273 
	C80.789146,156.711197 79.433128,161.377396 78.009933,166.325562 
	C77.617142,167.072861 77.291512,167.538193 76.639114,167.862656 
	C74.382019,165.286987 75.028549,160.384201 69.892967,161.019196 
	C69.530907,161.013718 69.265854,160.850601 69.429901,160.134308 
	C70.084549,158.870453 70.858917,157.878326 70.660110,157.152893 
	C68.550606,149.455231 66.427864,141.753815 63.953144,134.169479 
	C63.416695,132.525421 61.463501,131.343643 60.162853,129.948944 
z"/>
<path fill="#B78955" opacity="1.000000" stroke="none" 
	d="
M76.965881,168.003510 
	C77.291512,167.538193 77.617142,167.072861 78.251389,166.074585 
	C79.969109,161.005600 81.378212,156.469589 82.787308,151.933563 
	C82.830956,151.509171 82.874588,151.084778 83.087814,150.055206 
	C83.511055,148.634201 83.764702,147.818344 84.223961,147.306427 
	C84.543152,149.499908 84.469536,151.429901 84.864594,153.258652 
	C85.017609,153.966904 86.231613,154.445953 86.898125,155.297287 
	C86.834526,158.138184 86.835068,160.711227 86.523407,163.243591 
	C85.466545,163.805756 84.721878,164.408585 83.972900,165.339447 
	C83.970375,166.104889 83.972168,166.542313 83.964203,167.236755 
	C83.946327,167.665085 83.938210,167.836380 83.710014,167.781219 
	C82.696228,166.862366 81.902519,166.169952 80.627350,165.057526 
	C79.773163,167.488770 79.043304,169.297180 78.500038,171.160004 
	C76.410934,178.323502 78.250504,185.388107 82.729095,190.361954 
	C85.958618,193.948593 92.136536,194.880402 96.999390,196.996338 
	C97.009766,197.458359 97.020142,197.920380 96.738754,198.897751 
	C92.665031,198.228638 88.913925,196.925903 85.083679,195.926483 
	C83.813461,195.595047 82.339729,196.043625 80.959045,196.135590 
	C78.965195,191.731445 76.971336,187.327286 75.041077,182.110474 
	C75.725075,176.866364 76.345474,172.434937 76.965881,168.003510 
z"/>
<path fill="#3F352A" opacity="1.000000" stroke="none" 
	d="
M140.880554,121.758995 
	C137.540771,119.156654 134.463165,116.406021 131.495438,113.541557 
	C131.374969,113.425285 132.290955,112.235214 133.160309,111.114044 
	C135.732864,109.147423 137.869125,107.612206 140.118912,106.388008 
	C141.834824,107.479622 143.437225,108.260208 145.039627,109.040802 
	C143.747208,113.223999 142.454788,117.407188 140.880554,121.758995 
z"/>
<path fill="#392B21" opacity="1.000000" stroke="none" 
	d="
M64.667671,113.859344 
	C62.278278,116.462509 59.888885,119.065674 57.195633,121.825691 
	C55.118675,119.094749 53.339767,116.210510 51.574558,113.317909 
	C50.424583,111.433479 49.294518,109.536896 48.406242,107.179230 
	C49.440430,106.435463 50.223907,106.158218 51.414970,105.951355 
	C54.631809,107.016998 57.583088,107.739388 60.201149,109.101997 
	C61.991264,110.033684 63.316811,111.857986 64.776672,113.418457 
	C64.703293,113.553688 64.667671,113.859344 64.667671,113.859344 
z"/>
<path fill="#BDA180" opacity="1.000000" stroke="none" 
	d="
M140.005402,106.076988 
	C137.869125,107.612206 135.732864,109.147423 133.301834,110.834312 
	C133.005066,109.923355 133.003082,108.860733 133.230331,107.287041 
	C134.906937,105.169121 136.062714,103.022354 137.855103,102.054390 
	C143.760086,98.865395 145.293213,96.232658 144.114594,89.734352 
	C147.220474,91.396370 148.357361,96.568329 153.744415,94.969604 
	C149.021149,95.907913 148.866776,100.702187 146.522552,104.570114 
	C144.036865,105.357124 142.021133,105.717056 140.005402,106.076988 
z"/>
<path fill="#A69071" opacity="1.000000" stroke="none" 
	d="
M60.095230,130.348145 
	C61.463501,131.343643 63.416695,132.525421 63.953144,134.169479 
	C66.427864,141.753815 68.550606,149.455231 70.660110,157.152893 
	C70.858917,157.878326 70.084549,158.870453 69.452347,159.891815 
	C66.426247,151.182983 63.713394,142.320007 60.987991,133.460861 
	C60.706112,132.544601 60.349529,131.651306 60.095230,130.348145 
z"/>
<path fill="#66523F" opacity="1.000000" stroke="none" 
	d="
M109.109970,202.171204 
	C103.191147,207.917343 96.594688,208.563858 88.984375,204.275192 
	C87.998421,203.542572 87.438789,203.323608 86.879166,203.104645 
	C86.879166,203.104645 87.004494,203.055405 86.920059,202.788910 
	C86.507019,202.034180 86.178421,201.545944 85.849823,201.057693 
	C85.754211,201.198074 85.658600,201.338455 85.729401,201.165085 
	C91.288773,201.585602 96.673042,202.994873 102.444038,201.065125 
	C104.895134,201.437286 107.002556,201.804245 109.109970,202.171204 
z"/>
<path fill="#988367" opacity="1.000000" stroke="none" 
	d="
M126.933144,158.675171 
	C126.294319,158.165100 125.078278,157.093536 125.269890,156.426056 
	C127.662430,148.092117 130.241577,139.811295 132.844101,131.539246 
	C133.011581,131.006897 133.764130,130.658615 134.556259,130.091110 
	C132.248703,139.405502 129.629395,148.853485 126.933144,158.675171 
z"/>
<path fill="#6D4C30" opacity="1.000000" stroke="none" 
	d="
M131.911530,25.765720 
	C127.944939,25.973808 123.792702,29.250490 119.894157,25.135468 
	C118.922096,24.109430 116.542908,24.416500 114.517044,23.766045 
	C116.096809,22.641968 117.992500,21.172886 119.838303,21.233116 
	C123.235992,21.343983 126.604332,22.354021 129.984909,22.989323 
	C130.615723,23.809044 131.246552,24.628765 131.911530,25.765720 
z"/>
<path fill="#77593F" opacity="1.000000" stroke="none" 
	d="
M102.100357,201.059952 
	C96.673042,202.994873 91.288773,201.585602 85.514679,201.027969 
	C83.739929,199.742996 82.346336,198.281403 80.955887,196.477692 
	C82.339729,196.043625 83.813461,195.595047 85.083679,195.926483 
	C88.913925,196.925903 92.665031,198.228638 96.747101,199.244247 
	C98.433083,199.103287 99.818962,199.131180 101.621330,199.496368 
	C102.058670,200.242416 102.079514,200.651184 102.100357,201.059952 
z"/>
<path fill="#6C5947" opacity="1.000000" stroke="none" 
	d="
M129.957947,22.635086 
	C126.604332,22.354021 123.235992,21.343983 119.838303,21.233116 
	C117.992500,21.172886 116.096809,22.641968 114.114655,23.778255 
	C113.549103,24.400354 113.092506,24.665445 112.378899,25.009626 
	C112.562027,21.806259 113.022285,17.565495 116.966698,17.755789 
	C121.445450,17.971861 127.745903,14.904445 129.957947,22.635086 
z"/>
<path fill="#725436" opacity="1.000000" stroke="none" 
	d="
M102.444046,201.065125 
	C102.079514,200.651184 102.058670,200.242416 102.036690,199.530884 
	C106.874741,196.255356 111.713936,193.282608 116.877945,190.210602 
	C114.741150,194.108963 112.279541,198.106583 109.463951,202.137711 
	C107.002556,201.804245 104.895134,201.437286 102.444046,201.065125 
z"/>
<path fill="#704C2C" opacity="1.000000" stroke="none" 
	d="
M81.933746,21.565289 
	C77.051735,24.772148 72.403214,29.469017 65.559174,25.149078 
	C65.311310,24.537148 65.412628,23.949297 66.179344,23.178989 
	C70.884682,22.008381 74.924606,21.020226 78.964539,20.032070 
	C79.910255,20.446312 80.855965,20.860556 81.933746,21.565289 
z"/>
<path fill="#6B5747" opacity="1.000000" stroke="none" 
	d="
M78.951645,19.658596 
	C74.924606,21.020226 70.884682,22.008381 66.428391,23.002533 
	C66.987274,21.326849 67.918625,18.252764 68.945877,18.220379 
	C72.238319,18.116579 76.098564,15.110489 78.951645,19.658596 
z"/>
<path fill="#D5BF9C" opacity="1.000000" stroke="none" 
	d="
M76.639114,167.862656 
	C76.345474,172.434937 75.725075,176.866364 75.052002,181.719345 
	C74.659691,179.828293 73.903328,177.486008 74.065376,175.209106 
	C74.425385,170.151093 73.677040,165.567352 70.035103,161.355560 
	C75.028549,160.384201 74.382019,165.286987 76.639114,167.862656 
z"/>
<path fill="#5B4E3F" opacity="1.000000" stroke="none" 
	d="
M140.118912,106.388008 
	C142.021133,105.717056 144.036865,105.357124 146.454285,104.941490 
	C147.826172,106.584343 148.796387,108.282898 149.766602,109.981453 
	C150.221375,109.898811 150.676132,109.816177 151.130890,109.733536 
	C149.322556,109.602379 147.514236,109.471222 145.372772,109.190430 
	C143.437225,108.260208 141.834824,107.479622 140.118912,106.388008 
z"/>
<path fill="#D7BC9D" opacity="1.000000" stroke="none" 
	d="
M118.852966,169.477554 
	C120.694878,166.748520 122.567268,164.442291 124.789551,162.096878 
	C120.847420,168.337906 120.868111,175.524490 120.429413,182.933258 
	C119.665253,178.749146 119.274361,174.324768 118.852966,169.477554 
z"/>
<path fill="#CCB698" opacity="1.000000" stroke="none" 
	d="
M51.007385,105.880966 
	C50.223907,106.158218 49.440430,106.435463 48.347256,106.825455 
	C47.462509,106.396149 46.307938,105.514214 46.397301,105.361847 
	C48.545002,101.699936 46.323792,99.219566 44.023849,96.358528 
	C44.907097,95.920609 45.966877,95.819344 47.585487,96.023911 
	C49.098679,99.513496 50.053032,102.697227 51.007385,105.880966 
z"/>
<path fill="#D7BC9D" opacity="1.000000" stroke="none" 
	d="
M125.348816,161.989822 
	C125.268410,161.574112 125.479019,161.018646 125.892334,160.234375 
	C125.943306,160.620407 125.791573,161.235245 125.348816,161.989822 
z"/>
<path fill="#77593F" opacity="1.000000" stroke="none" 
	d="
M85.698853,201.366379 
	C86.178421,201.545944 86.507019,202.034180 86.862358,202.824524 
	C86.442024,202.642761 85.994949,202.158905 85.698853,201.366379 
z"/>
<path fill="#77593F" opacity="1.000000" stroke="none" 
	d="
M87.024445,203.383484 
	C87.438789,203.323608 87.998421,203.542572 88.739342,204.009857 
	C88.336998,204.059555 87.753357,203.860931 87.024445,203.383484 
z"/>
<path fill="#C18744" opacity="1.000000" stroke="none" 
	d="
M86.962280,155.029419 
	C86.231613,154.445953 85.017609,153.966904 84.864594,153.258652 
	C84.469536,151.429901 84.543152,149.499908 84.206970,146.952301 
	C83.671318,145.194305 83.358269,144.094330 83.045219,142.994370 
	C82.766090,137.719177 82.486961,132.443985 82.513489,126.518921 
	C83.499924,123.270126 84.180687,120.671188 85.217850,117.982658 
	C87.362007,115.096886 90.057762,112.493698 90.703682,109.454811 
	C91.480278,105.801048 89.817764,101.542450 85.396835,101.316010 
	C77.673958,100.920464 70.424454,102.865776 64.775681,108.807220 
	C64.073387,107.725006 63.575989,106.864983 63.055283,105.624138 
	C61.322723,101.845169 59.613480,98.447014 57.904236,95.048859 
	C62.511532,93.963501 67.288155,93.315781 71.660797,91.623947 
	C74.168594,90.653641 76.629829,88.357239 78.048622,86.013969 
	C81.677376,80.020744 85.012390,73.894424 91.295853,70.202866 
	C92.838066,69.296814 94.594063,68.754623 96.622437,68.024109 
	C96.996124,110.688667 96.999161,153.374268 97.000793,196.528107 
	C92.136536,194.880402 85.958618,193.948593 82.729095,190.361954 
	C78.250504,185.388107 76.410934,178.323502 78.500038,171.160004 
	C79.043304,169.297180 79.773163,167.488770 80.627350,165.057526 
	C81.902519,166.169952 82.696228,166.862366 83.803467,168.115204 
	C85.094429,169.973282 85.932945,171.411270 87.075371,172.542267 
	C90.480293,175.913177 92.031799,175.491898 93.502625,170.896957 
	C93.798988,169.971115 93.851555,168.967224 94.160507,167.650238 
	C95.684998,160.274963 92.733215,155.341354 86.962280,155.029419 
z"/>
<path fill="#A97338" opacity="1.000000" stroke="none" 
	d="
M131.980087,106.991295 
	C128.948807,108.718834 126.077141,110.881645 122.846764,112.066208 
	C118.594147,113.625633 113.539856,113.415512 110.948349,118.630913 
	C108.697632,115.252243 105.618317,111.755638 104.756912,107.778641 
	C104.004448,104.304565 106.785744,100.889679 111.049477,101.143036 
	C114.588562,101.353340 118.082062,102.534782 121.566277,103.404129 
	C124.722961,104.191750 127.839821,105.138954 131.432373,106.260056 
	C131.890518,106.504303 131.980087,106.991295 131.980087,106.991295 
z"/>
<path fill="#B78A58" opacity="1.000000" stroke="none" 
	d="
M101.154076,167.402313 
	C101.813156,163.745773 101.776955,160.021973 103.448174,157.377014 
	C105.668983,153.862259 109.074707,154.530914 111.337372,158.134384 
	C114.399429,163.011002 112.394600,171.153992 107.206184,173.657242 
	C106.229118,174.128647 104.015457,173.274384 103.107315,172.327209 
	C102.054474,171.229141 101.812698,169.353439 101.154076,167.402313 
M109.593742,161.942596 
	C110.392616,158.095520 107.935791,158.733398 106.344963,160.042847 
	C103.713394,162.208954 103.280464,165.154327 105.196243,168.566513 
	C106.683510,166.357925 107.957634,164.465836 109.593742,161.942596 
z"/>
<path fill="#C49D72" opacity="1.000000" stroke="none" 
	d="
M132.235535,106.994476 
	C131.980087,106.991295 131.890518,106.504303 131.839813,106.261604 
	C133.483627,102.607620 135.178116,99.196335 136.952118,95.457474 
	C138.681259,93.012093 140.330917,90.894302 142.000854,88.413895 
	C142.641632,88.440910 143.262131,88.830544 143.998627,89.477264 
	C145.293213,96.232658 143.760086,98.865395 137.855103,102.054390 
	C136.062714,103.022354 134.906937,105.169121 133.230759,106.888397 
	C132.831635,106.999763 132.661316,106.998711 132.235535,106.994476 
z"/>
<path fill="#6C4B2E" opacity="1.000000" stroke="none" 
	d="
M145.018188,86.801552 
	C144.261551,86.831177 143.504929,86.860802 142.369370,86.878098 
	C141.006577,85.469902 140.022720,84.074028 139.035492,82.331329 
	C139.219147,81.731262 139.423172,81.492577 140.171143,81.194687 
	C142.138138,83.014481 143.578156,84.908012 145.018188,86.801552 
z"/>
<path fill="#D6AD7E" opacity="1.000000" stroke="none" 
	d="
M57.614502,94.875946 
	C59.613480,98.447014 61.322723,101.845169 62.698006,105.560654 
	C57.193855,101.990662 51.502590,98.603188 49.105194,92.056030 
	C50.041283,90.674225 50.977371,89.292419 52.229309,87.538651 
	C52.545158,87.166702 53.000256,87.103889 53.000256,87.103889 
	C54.441761,89.636940 55.883263,92.169991 57.614502,94.875946 
z"/>
<path fill="#765132" opacity="1.000000" stroke="none" 
	d="
M53.273758,86.904907 
	C53.000256,87.103889 52.545158,87.166702 52.325237,87.234970 
	C51.917435,87.222260 51.729553,87.141281 51.287022,86.612747 
	C52.445827,84.385475 53.859280,82.605766 55.272728,80.826057 
	C55.546665,81.357010 55.820602,81.887970 56.228729,82.691177 
	C55.424362,84.210930 54.485809,85.458427 53.273758,86.904907 
z"/>
<path fill="#644837" opacity="1.000000" stroke="none" 
	d="
M145.414520,86.847939 
	C143.578156,84.908012 142.138138,83.014481 140.351440,81.042542 
	C141.413132,75.679779 143.058105,70.445183 144.182144,65.101028 
	C146.774826,52.774326 155.086166,50.404861 169.561569,54.264309 
	C167.607437,56.344135 166.120239,58.140354 164.408478,59.688236 
	C162.731598,61.204575 160.826050,62.468048 158.600876,64.162285 
	C160.362885,65.449654 161.594864,66.349762 163.398972,67.667870 
	C159.853012,70.435120 158.452744,73.637215 158.491638,78.128265 
	C158.524460,81.917938 150.525864,86.643539 145.414520,86.847939 
z"/>
<path fill="#6C503C" opacity="1.000000" stroke="none" 
	d="
M55.147144,80.474167 
	C53.859280,82.605766 52.445827,84.385475 50.999172,86.506332 
	C44.756828,87.349442 40.479073,83.986084 37.253399,79.337372 
	C36.184486,77.796906 36.602375,75.224770 37.205986,72.909348 
	C35.577904,71.115433 33.949825,69.321518 31.951159,67.119270 
	C33.781189,66.275146 35.038658,65.695129 36.433395,65.051796 
	C36.278450,64.569603 36.271393,63.986507 35.977497,63.721401 
	C33.516975,61.501907 30.897829,59.448685 28.537497,57.130508 
	C26.361971,54.993835 26.765001,53.196304 29.933453,52.730267 
	C40.968166,51.107197 48.579288,52.811363 50.890697,64.241737 
	C51.973171,69.594803 53.626789,74.832367 55.147144,80.474167 
z"/>
<path fill="#C9AB87" opacity="1.000000" stroke="none" 
	d="
M48.870689,92.289261 
	C51.502590,98.603188 57.193855,101.990662 62.721321,105.941467 
	C63.575989,106.864983 64.073387,107.725006 64.780037,109.035873 
	C64.989296,109.486710 65.019104,109.943481 65.007828,110.361557 
	C64.947716,111.614159 64.898888,112.448685 64.850060,113.283218 
	C63.316811,111.857986 61.991264,110.033684 60.201149,109.101997 
	C57.583088,107.739388 54.631809,107.016998 51.414970,105.951355 
	C50.053032,102.697227 49.098679,99.513496 47.982765,95.986053 
	C48.092869,94.602394 48.364525,93.562439 48.870689,92.289261 
z"/>
<path fill="#D6AB78" opacity="1.000000" stroke="none" 
	d="
M64.776672,113.418457 
	C64.898888,112.448685 64.947716,111.614159 65.350433,110.529068 
	C68.253441,110.897667 70.945190,111.186165 73.319565,112.210411 
	C77.273903,113.916214 81.024857,116.093506 84.861458,118.072258 
	C84.180687,120.671188 83.499924,123.270126 82.529373,126.070312 
	C82.041039,125.016045 81.730446,123.766335 81.664818,122.503906 
	C81.462952,118.620811 77.313812,115.081993 73.448273,115.090332 
	C70.778000,115.096092 68.106247,114.412361 65.051407,113.948044 
	C64.667671,113.859344 64.703293,113.553688 64.776672,113.418457 
z"/>
<path fill="#D6AB78" opacity="1.000000" stroke="none" 
	d="
M82.466240,151.989273 
	C81.378212,156.469589 79.969109,161.005600 78.318558,165.792618 
	C79.433128,161.377396 80.789146,156.711197 82.466240,151.989273 
z"/>
<path fill="#D6AB78" opacity="1.000000" stroke="none" 
	d="
M82.707901,143.137085 
	C83.358269,144.094330 83.671318,145.194305 84.001358,146.648376 
	C83.764702,147.818344 83.511055,148.634201 83.107635,149.735840 
	C80.122536,148.004288 80.352592,145.719925 82.707901,143.137085 
z"/>
<path fill="#C59666" opacity="1.000000" stroke="none" 
	d="
M86.898132,155.297287 
	C92.733215,155.341354 95.684998,160.274963 93.839767,167.764648 
	C91.102470,171.021027 88.903313,171.689713 86.524368,168.248077 
	C86.051758,167.564331 84.843170,167.389313 83.973961,166.979721 
	C83.972168,166.542313 83.970375,166.104889 84.290092,165.316223 
	C85.352936,164.404739 86.094276,163.844498 86.835617,163.284256 
	C86.835068,160.711227 86.834526,158.138184 86.898132,155.297287 
z"/>
<path fill="#CA995E" opacity="1.000000" stroke="none" 
	d="
M83.964203,167.236755 
	C84.843170,167.389313 86.051758,167.564331 86.524368,168.248077 
	C88.903313,171.689713 91.102470,171.021027 93.695793,168.113739 
	C93.851555,168.967224 93.798988,169.971115 93.502625,170.896957 
	C92.031799,175.491898 90.480293,175.913177 87.075371,172.542267 
	C85.932945,171.411270 85.094429,169.973282 84.023544,168.341644 
	C83.938210,167.836380 83.946327,167.665085 83.964203,167.236755 
z"/>
<path fill="#CA995E" opacity="1.000000" stroke="none" 
	d="
M86.523407,163.243591 
	C86.094276,163.844498 85.352936,164.404739 84.294403,164.988190 
	C84.721878,164.408585 85.466545,163.805756 86.523407,163.243591 
z"/>
<path fill="#B97E3D" opacity="1.000000" stroke="none" 
	d="
M85.217850,117.982658 
	C81.024857,116.093506 77.273903,113.916214 73.319565,112.210411 
	C70.945190,111.186165 68.253441,110.897667 65.361710,110.110992 
	C65.019104,109.943481 64.989296,109.486710 64.984940,109.258057 
	C70.424454,102.865776 77.673958,100.920464 85.396835,101.316010 
	C89.817764,101.542450 91.480278,105.801048 90.703682,109.454811 
	C90.057762,112.493698 87.362007,115.096886 85.217850,117.982658 
z"/>
<path fill="#5A3617" opacity="1.000000" stroke="none" 
	d="
M109.412750,162.258179 
	C107.957634,164.465836 106.683510,166.357925 105.196243,168.566513 
	C103.280464,165.154327 103.713394,162.208954 106.344963,160.042847 
	C107.935791,158.733398 110.392616,158.095520 109.412750,162.258179 
z"/>
</svg>