<svg version="1.1" id="Layer_1" xmlns="http://www.w3.org/2000/svg" xmlns:xlink="http://www.w3.org/1999/xlink" x="0px" y="0px"
	 width="100%" viewBox="0 0 231 251" enable-background="new 0 0 231 251" xml:space="preserve">
<path fill="#000000" opacity="1.000000" stroke="none" 
	d="
M1.000000,90.000000 
	C1.000000,60.000004 1.000000,30.500011 1.000000,1.000012 
	C77.999977,1.000008 154.999954,1.000008 231.999954,1.000004 
	C231.999969,84.666634 231.999969,168.333267 231.999985,251.999908 
	C155.000046,251.999939 78.000099,251.999939 1.000072,251.999969 
	C1.000000,198.166672 1.000000,144.333328 1.000000,90.000000 
M215.984985,99.142166 
	C215.984985,99.142166 216.073105,99.044922 215.992157,98.263199 
	C215.639038,97.344742 215.285904,96.426285 214.998245,95.497780 
	C214.998245,95.497780 214.931564,95.495270 215.004944,94.551247 
	C214.677444,90.828468 214.648621,87.045547 213.915359,83.404488 
	C213.442184,81.054832 211.936249,78.913162 210.656372,76.092682 
	C209.126541,74.405563 207.596725,72.718437 206.184570,70.346634 
	C209.353531,64.898003 208.918228,63.099056 203.344376,60.904018 
	C201.920425,60.274437 200.496490,59.644855 198.805359,58.413754 
	C198.229935,57.314728 197.654510,56.215702 197.819702,55.025047 
	C198.561218,54.955318 199.302734,54.885593 200.868393,54.936817 
	C203.077423,54.810566 205.286453,54.684311 208.642441,54.492508 
	C206.788742,51.992611 205.884857,50.215172 204.491501,48.998116 
	C200.111374,45.172245 195.547256,41.557049 191.356354,37.270657 
	C192.829178,35.819691 192.829178,35.819691 188.918488,33.200867 
	C183.414917,29.744556 177.609894,27.317032 170.348175,27.766819 
	C170.583527,26.506598 170.818863,25.246378 171.767609,23.942640 
	C174.235733,22.320368 176.703857,20.698095 179.171982,19.075823 
	C178.911026,18.514378 178.650070,17.952930 178.389099,17.391485 
	C169.486145,14.173416 160.771851,17.351442 151.976791,18.977377 
	C151.976791,18.977377 152.150269,19.007284 152.122375,18.310440 
	C152.464691,17.225613 152.807007,16.140787 153.729599,14.691295 
	C154.789185,12.973969 155.848785,11.256643 156.908371,9.539317 
	C156.659058,9.119138 156.409729,8.698958 156.160400,8.278779 
	C152.816986,9.337612 149.436905,10.295005 146.141479,11.486570 
	C143.379669,12.485192 140.288254,15.225958 138.103134,14.588594 
	C134.108582,13.423450 132.143066,14.997499 130.056641,17.482847 
	C127.602333,20.406404 125.251411,23.416519 122.836838,26.373730 
	C121.260376,28.304464 119.650436,30.207861 118.566132,31.510197 
	C112.892242,25.388840 108.530495,18.304855 102.196777,14.526675 
	C96.009491,10.835847 87.809380,10.519311 80.251259,8.662158 
	C81.762283,12.817975 82.860466,15.838316 83.178902,18.981850 
	C80.417503,18.395590 77.656113,17.809328 74.422485,17.117422 
	C74.422485,17.117422 73.939247,17.142611 73.643417,17.004494 
	C73.643417,17.004494 73.326233,17.081820 72.849297,16.382132 
	C69.494926,15.904802 66.134392,15.055500 62.788837,15.110845 
	C61.174240,15.137555 58.702545,16.522614 58.169510,17.894899 
	C56.993401,20.922770 59.615105,21.613602 62.250095,22.613338 
	C63.773766,23.778875 65.297440,24.944412 67.406631,26.557848 
	C58.624699,29.490471 49.496723,29.439636 42.384579,36.102009 
	C44.606327,37.439629 46.202259,38.400471 48.400513,39.723946 
	C40.597000,42.936054 33.250263,45.990826 28.580973,54.114857 
	C32.558102,54.564392 35.856995,54.937263 39.274632,55.323559 
	C39.161171,56.508327 39.040737,57.765877 38.186069,59.014393 
	C36.481159,59.682671 34.776245,60.350948 32.373928,61.177357 
	C27.663326,64.027832 29.562187,68.246117 29.702744,72.761391 
	C28.146925,75.107246 25.959057,77.260010 25.170763,79.840347 
	C23.667168,84.762100 22.754345,89.896698 21.991093,95.001968 
	C21.387609,99.038567 21.394972,103.165009 21.087429,107.248260 
	C20.996899,108.450249 20.883440,109.675575 20.566080,110.831337 
	C18.478733,118.432999 16.332729,126.018555 13.505051,134.048691 
	C13.976225,137.371902 14.447398,140.695099 15.036978,144.043213 
	C15.036978,144.043213 15.062166,143.924866 14.551083,144.146133 
	C14.454236,144.478409 14.357389,144.810669 14.077202,145.920044 
	C12.844245,152.418762 11.611288,158.917480 10.378330,165.416199 
	C10.928464,165.768951 11.478597,166.121704 12.028730,166.474457 
	C13.905207,165.442032 15.781682,164.409607 17.102297,163.683029 
	C19.344128,171.068527 21.621122,178.569901 24.194775,187.048569 
	C26.247910,184.799042 27.351780,183.589584 27.774376,183.126572 
	C32.291111,190.309448 36.633854,197.595688 41.394653,204.597687 
	C43.272739,207.359909 45.448811,211.320587 49.451435,207.599304 
	C55.737919,211.329391 56.920113,220.058594 65.094719,221.761826 
	C66.497215,217.411575 67.795555,213.384369 68.800827,210.266235 
	C75.707985,216.474731 82.472931,222.555420 89.167435,229.463287 
	C94.286263,228.471756 98.596062,230.858231 103.620163,233.159454 
	C107.681892,235.884888 111.455421,239.923645 117.034241,236.698792 
	C117.623032,237.085205 118.211830,237.471603 119.112953,238.587860 
	C121.355156,238.075500 123.597359,237.563126 126.212494,236.461166 
	C127.507500,235.654602 128.802505,234.848022 130.811600,233.968079 
	C135.510345,231.635117 139.614655,227.251617 145.730896,229.783005 
	C146.303802,230.020126 147.459610,229.576492 147.990402,229.074326 
	C152.860229,224.467133 157.716248,219.841019 162.431641,215.077225 
	C164.122803,213.368744 165.419678,211.269989 167.412048,208.678864 
	C168.976974,213.590942 170.262863,217.627182 171.548752,221.663406 
	C172.095566,221.910675 172.642365,222.157959 173.189163,222.405228 
	C176.405624,218.880600 179.622086,215.355988 183.544647,211.878418 
	C186.080597,210.534256 188.616531,209.190094 191.769379,207.651520 
	C199.534988,200.534317 205.133301,191.998260 208.173782,181.943756 
	C209.328171,183.393692 210.299133,184.613235 212.461090,187.328690 
	C215.207352,178.294128 217.535355,170.635452 219.863373,162.976791 
	C221.614655,162.580811 223.442993,161.512070 223.883270,160.030777 
	C224.444931,158.141113 223.885025,155.918076 223.904510,152.982559 
	C223.939209,148.264191 224.157028,143.534592 223.869446,138.835953 
	C223.804153,137.769150 221.986618,136.809586 220.975082,134.898926 
	C220.829514,130.936600 221.377777,126.791634 220.392990,123.050194 
	C218.384048,115.417778 213.555496,108.329773 216.711975,99.424332 
	C216.502197,99.155685 216.227295,99.032433 215.984985,99.142166 
z"/>
<path fill="#B77326" opacity="1.000000" stroke="none" 
	d="
M116.957321,236.086182 
	C111.455421,239.923645 107.681892,235.884888 103.177505,232.677765 
	C99.499886,229.758804 96.264908,227.321533 93.135529,224.963837 
	C91.469841,226.533188 90.353851,227.584641 89.237869,228.636093 
	C82.472931,222.555420 75.707985,216.474731 68.800827,210.266235 
	C67.795555,213.384369 66.497215,217.411575 65.094719,221.761826 
	C56.920113,220.058594 55.737919,211.329391 49.451435,207.599304 
	C45.448811,211.320587 43.272739,207.359909 41.394653,204.597687 
	C36.633854,197.595688 32.291111,190.309448 27.774376,183.126572 
	C27.351780,183.589584 26.247910,184.799042 24.194775,187.048569 
	C21.621122,178.569901 19.344128,171.068527 17.102297,163.683029 
	C15.781682,164.409607 13.905207,165.442032 12.028730,166.474457 
	C11.478597,166.121704 10.928464,165.768951 10.378330,165.416199 
	C11.611288,158.917480 12.844245,152.418762 14.285762,145.312988 
	C14.589252,144.376938 14.778533,144.116577 15.062166,143.924866 
	C15.062166,143.924866 15.036978,144.043213 15.307899,143.923492 
	C16.631363,141.388199 17.683905,138.972626 18.573618,136.930740 
	C16.674679,135.486725 15.440269,134.548035 14.205860,133.609360 
	C16.332729,126.018555 18.478733,118.432999 20.566080,110.831337 
	C20.883440,109.675575 20.996899,108.450249 21.087429,107.248260 
	C21.394972,103.165009 21.387609,99.038567 21.991093,95.001968 
	C22.754345,89.896698 23.667168,84.762100 25.170763,79.840347 
	C25.959057,77.260010 28.146925,75.107246 30.150600,72.521515 
	C31.043909,72.544884 31.489361,72.808121 32.092155,73.372467 
	C34.717831,77.371559 37.099785,81.131355 39.685402,84.745430 
	C41.358528,87.084053 42.879242,86.693764 44.114571,83.856979 
	C46.126175,82.283211 47.738655,80.881165 44.060524,79.686859 
	C44.045586,79.457230 44.009167,78.998436 44.166626,78.696899 
	C46.374363,74.738022 49.940060,71.279572 45.965225,66.502197 
	C46.849503,64.487213 47.612373,62.785595 48.146202,61.594872 
	C44.665874,60.624836 41.793091,59.824131 38.920307,59.023430 
	C39.040737,57.765877 39.161171,56.508327 39.274632,55.323559 
	C35.856995,54.937263 32.558102,54.564392 28.580973,54.114857 
	C33.250263,45.990826 40.597000,42.936054 48.400513,39.723946 
	C46.202259,38.400471 44.606327,37.439629 42.384579,36.102009 
	C49.496723,29.439636 58.624699,29.490471 67.406631,26.557848 
	C65.297440,24.944412 63.773766,23.778875 61.964668,22.018528 
	C60.211803,19.028019 60.583282,17.335835 63.635178,17.164124 
	C66.856873,16.982859 70.095184,17.096827 73.326233,17.081820 
	C73.326233,17.081820 73.643417,17.004494 73.892235,16.977962 
	C74.465851,16.881828 74.717072,16.972374 74.894714,17.223068 
	C77.656113,17.809328 80.417503,18.395590 83.696228,19.128395 
	C84.493141,19.419069 84.797012,19.708565 85.045563,19.667023 
	C85.301384,19.624266 85.615547,19.298901 85.712227,19.028547 
	C87.878365,12.971370 87.866890,12.986279 93.755775,15.264155 
	C95.138344,15.798948 96.575356,16.196844 97.996498,16.627417 
	C105.042274,18.762121 109.808777,23.551441 113.570595,29.661959 
	C114.824463,31.698660 116.634521,33.392941 118.159126,35.696167 
	C118.064774,50.118446 118.001625,64.088318 117.701492,78.066147 
	C117.464500,78.074097 116.990280,78.070236 116.829094,77.772278 
	C112.103333,73.022972 107.538750,68.571625 102.718628,63.849670 
	C96.040199,60.545502 90.228096,63.165321 86.106262,70.179810 
	C82.273544,76.702278 77.476791,82.668228 73.787857,89.261543 
	C71.526970,93.302475 68.650986,98.393524 69.353569,102.439545 
	C71.553192,115.106697 75.002167,127.594330 78.605194,139.965683 
	C80.623146,146.894501 83.902756,153.455872 86.625580,160.565338 
	C86.583031,162.774170 86.192307,164.672348 86.562996,166.407913 
	C86.989624,168.405426 88.089432,170.259171 89.043617,172.487457 
	C90.772438,175.213333 92.354515,177.627106 93.780693,180.391327 
	C93.775711,183.650299 93.926628,186.558792 94.178673,189.796387 
	C94.912971,190.729950 95.546135,191.334427 96.114769,191.916168 
	C96.050232,191.893448 96.096123,191.764542 96.195900,192.096527 
	C98.674591,194.177979 101.053513,195.927460 103.369598,197.717712 
	C103.306755,197.758499 103.226524,197.631958 103.338028,197.969360 
	C104.174522,198.851624 104.899506,199.396484 105.682587,199.861725 
	C105.740685,199.782104 105.914070,199.875900 106.071732,200.180084 
	C108.182686,200.966736 110.135979,201.449173 112.404991,201.941147 
	C113.134041,202.015076 113.547379,202.079468 114.144409,202.418365 
	C115.545502,203.137421 116.762909,203.581970 117.981110,204.493530 
	C117.640388,215.335739 117.298851,225.710968 116.957321,236.086182 
z"/>
<path fill="#A76920" opacity="1.000000" stroke="none" 
	d="
M117.938477,78.058197 
	C118.001625,64.088318 118.064774,50.118446 118.465561,35.547009 
	C120.397285,33.529507 122.710838,32.420094 123.466339,30.646856 
	C127.716522,20.671329 137.821335,19.027893 145.876541,14.526706 
	C146.884674,13.963361 148.675812,14.801285 150.161438,15.316204 
	C150.862564,16.764072 151.506424,17.885679 152.150269,19.007284 
	C152.150269,19.007284 151.976791,18.977377 152.221313,19.194729 
	C155.134674,19.773224 157.807068,20.431990 160.471252,20.400328 
	C162.561722,20.375483 164.618286,19.269642 166.732224,19.048479 
	C170.286301,18.676651 172.229904,20.052216 171.054214,23.986156 
	C170.818863,25.246378 170.583527,26.506598 170.802277,28.165634 
	C177.162674,30.361361 183.068970,32.158272 188.975281,33.955185 
	C192.829178,35.819691 192.829178,35.819691 190.877792,37.624992 
	C187.588821,38.502384 186.878464,40.111019 189.053818,41.927601 
	C190.859283,43.435291 193.186600,44.466892 195.441040,45.258606 
	C200.926819,47.185108 202.101730,49.420311 200.044250,54.815868 
	C199.302734,54.885593 198.561218,54.955318 197.231445,55.118256 
	C195.743301,57.008804 194.843430,58.806145 193.519470,60.651375 
	C191.675629,60.720264 190.255844,60.741268 188.619675,60.732075 
	C188.290176,61.816795 188.177078,62.931713 188.054199,64.275726 
	C188.044434,64.504814 188.059509,64.963173 188.111938,65.305054 
	C188.449692,66.763680 188.735001,67.880417 188.858902,69.276649 
	C189.782211,73.961372 190.864502,78.367218 191.965637,82.768341 
	C191.993423,82.879425 192.228912,82.938545 192.362137,83.335030 
	C192.563644,84.448189 192.770569,85.248222 193.062531,86.253670 
	C193.801651,86.413269 194.455719,86.367455 195.406464,86.151413 
	C198.499054,81.686600 201.294998,77.392021 204.262192,72.878220 
	C204.668274,72.157578 204.903137,71.656158 205.368774,71.113029 
	C205.599564,71.071327 206.066895,71.031326 206.066895,71.031326 
	C207.596725,72.718437 209.126541,74.405563 210.763885,76.789658 
	C211.141449,78.927139 212.105408,80.738129 211.566833,81.746880 
	C208.508209,87.475510 212.339142,91.291229 214.931564,95.495270 
	C214.931564,95.495270 214.998245,95.497780 214.904419,95.898880 
	C215.231415,97.214966 215.652267,98.129944 216.073105,99.044922 
	C216.073105,99.044922 215.984985,99.142166 216.199402,99.008545 
	C216.524475,99.214149 216.635101,99.553375 216.745743,99.892593 
	C213.555496,108.329773 218.384048,115.417778 220.392990,123.050194 
	C221.377777,126.791634 220.829514,130.936600 220.657471,135.543732 
	C219.919434,137.027359 218.974747,138.012985 219.161972,138.681671 
	C220.586304,143.768890 222.231888,148.794174 223.808548,153.838745 
	C223.885025,155.918076 224.444931,158.141113 223.883270,160.030777 
	C223.442993,161.512070 221.614655,162.580811 219.863373,162.976791 
	C217.535355,170.635452 215.207352,178.294128 212.461090,187.328690 
	C210.299133,184.613235 209.328171,183.393692 208.173782,181.943756 
	C205.133301,191.998260 199.534988,200.534317 191.114594,207.709198 
	C189.367218,206.442459 188.274612,205.118042 186.511612,202.980988 
	C185.151733,206.257675 183.995132,209.044510 182.838547,211.831360 
	C179.622086,215.355988 176.405624,218.880600 173.189163,222.405228 
	C172.642365,222.157959 172.095566,221.910675 171.548752,221.663406 
	C170.262863,217.627182 168.976974,213.590942 167.412048,208.678864 
	C165.419678,211.269989 164.122803,213.368744 162.431641,215.077225 
	C157.716248,219.841019 152.860229,224.467133 147.990402,229.074326 
	C147.459610,229.576492 146.303802,230.020126 145.730896,229.783005 
	C139.614655,227.251617 135.510345,231.635117 130.011932,233.994827 
	C127.160706,234.049255 125.109161,234.076920 122.744987,234.199738 
	C121.221779,235.482590 120.011192,236.670303 118.800613,237.858002 
	C118.211830,237.471603 117.623032,237.085205 116.995781,236.392487 
	C117.298851,225.710968 117.640388,215.335739 118.379593,204.498260 
	C122.954292,203.517899 127.371620,203.667175 131.234329,202.276230 
	C134.480179,201.107391 137.080078,198.144684 140.237640,195.858810 
	C141.002884,195.154617 141.496429,194.567780 142.214340,193.814514 
	C142.948441,193.425552 143.458145,193.203018 144.319809,192.873322 
	C145.730957,191.438370 147.443924,190.228821 147.710007,188.757599 
	C148.226227,185.903427 147.929108,182.902145 148.108368,179.649933 
	C149.830933,175.223602 151.414139,171.109146 153.185974,166.687347 
	C155.757263,158.648590 158.361084,150.977036 160.473328,143.172424 
	C164.090790,129.806122 167.657623,116.412209 170.587250,102.887253 
	C171.076294,100.629471 168.234879,97.650284 166.880325,94.708740 
	C166.785446,94.015053 166.742645,93.617081 166.860992,92.948669 
	C167.075912,92.199684 167.354492,91.572594 167.150742,91.264229 
	C161.661285,82.956528 156.177216,74.643562 150.512146,66.456085 
	C149.905624,65.579491 148.195648,65.466377 146.763977,64.840469 
	C146.011963,64.140747 145.493530,63.599628 144.911774,62.704514 
	C141.631012,58.229782 139.367783,58.154263 135.762451,62.221340 
	C135.023422,62.958309 134.519638,63.529121 133.704865,64.149727 
	C132.615112,64.501472 131.836334,64.803421 130.773071,65.187073 
	C129.962662,65.822754 129.436783,66.376732 128.665802,67.154236 
	C124.926628,70.937904 121.432556,74.498047 117.938477,78.058197 
z"/>
<path fill="#9F7641" opacity="1.000000" stroke="none" 
	d="
M150.104156,14.989941 
	C148.675812,14.801285 146.884674,13.963361 145.876541,14.526706 
	C137.821335,19.027893 127.716522,20.671329 123.466339,30.646856 
	C122.710838,32.420094 120.397285,33.529507 118.496750,35.094597 
	C116.634521,33.392941 114.824463,31.698660 113.570595,29.661959 
	C109.808777,23.551441 105.042274,18.762121 97.996498,16.627417 
	C96.575356,16.196844 95.138344,15.798948 93.755775,15.264155 
	C87.866890,12.986279 87.878365,12.971370 85.712227,19.028547 
	C85.615547,19.298901 85.301384,19.624266 85.045563,19.667023 
	C84.797012,19.708565 84.493141,19.419069 84.086105,19.066799 
	C82.860466,15.838316 81.762283,12.817975 80.251259,8.662158 
	C87.809380,10.519311 96.009491,10.835847 102.196777,14.526675 
	C108.530495,18.304855 112.892242,25.388840 118.566132,31.510197 
	C119.650436,30.207861 121.260376,28.304464 122.836838,26.373730 
	C125.251411,23.416519 127.602333,20.406404 130.056641,17.482847 
	C132.143066,14.997499 134.108582,13.423450 138.103134,14.588594 
	C140.288254,15.225958 143.379669,12.485192 146.141479,11.486570 
	C149.436905,10.295005 152.816986,9.337612 156.160400,8.278779 
	C156.409729,8.698958 156.659058,9.119138 156.908371,9.539317 
	C155.848785,11.256643 154.789185,12.973969 153.057617,14.863138 
	C151.625153,15.019968 150.864655,15.004954 150.104156,14.989941 
z"/>
<path fill="#9F733F" opacity="1.000000" stroke="none" 
	d="
M171.410919,23.964397 
	C172.229904,20.052216 170.286301,18.676651 166.732224,19.048479 
	C164.618286,19.269642 162.561722,20.375483 160.471252,20.400328 
	C157.807068,20.431990 155.134674,19.773224 152.236237,19.107983 
	C160.771851,17.351442 169.486145,14.173416 178.389099,17.391485 
	C178.650070,17.952930 178.911026,18.514378 179.171982,19.075823 
	C176.703857,20.698095 174.235733,22.320368 171.410919,23.964397 
z"/>
<path fill="#9E753F" opacity="1.000000" stroke="none" 
	d="
M200.456329,54.876343 
	C202.101730,49.420311 200.926819,47.185108 195.441040,45.258606 
	C193.186600,44.466892 190.859283,43.435291 189.053818,41.927601 
	C186.878464,40.111019 187.588821,38.502384 190.726807,37.919807 
	C195.547256,41.557049 200.111374,45.172245 204.491501,48.998116 
	C205.884857,50.215172 206.788742,51.992611 208.642441,54.492508 
	C205.286453,54.684311 203.077423,54.810566 200.456329,54.876343 
z"/>
<path fill="#D4A168" opacity="1.000000" stroke="none" 
	d="
M38.553188,59.018913 
	C41.793091,59.824131 44.665874,60.624836 48.146202,61.594872 
	C47.612373,62.785595 46.849503,64.487213 45.610580,66.524841 
	C44.420765,66.890701 43.706997,66.920555 42.670486,66.843979 
	C40.263000,66.869278 38.178257,67.000999 36.071087,66.750916 
	C35.056217,64.585808 34.063774,62.802517 33.071331,61.019222 
	C34.776245,60.350948 36.481159,59.682671 38.553188,59.018913 
z"/>
<path fill="#CEA97D" opacity="1.000000" stroke="none" 
	d="
M32.722630,61.098289 
	C34.063774,62.802517 35.056217,64.585808 36.046669,67.105385 
	C36.008575,68.555878 35.972477,69.270096 35.655403,70.131943 
	C34.227890,71.210175 33.081352,72.140770 31.934811,73.071358 
	C31.489361,72.808121 31.043909,72.544884 30.347500,72.231827 
	C29.562187,68.246117 27.663326,64.027832 32.722630,61.098289 
z"/>
<path fill="#C29769" opacity="1.000000" stroke="none" 
	d="
M205.137985,71.154732 
	C204.903137,71.656158 204.668274,72.157578 203.942047,72.728714 
	C202.544434,72.522858 201.638199,72.247299 200.719620,71.608276 
	C200.649673,68.140717 199.213669,66.282173 196.087677,65.708191 
	C196.780319,63.959713 197.382584,62.535446 198.181427,60.884659 
	C198.609512,60.110516 198.841019,59.562893 199.072540,59.015274 
	C200.496490,59.644855 201.920425,60.274437 203.545044,61.339127 
	C200.967300,65.382324 205.361588,67.925827 205.137985,71.154732 
z"/>
<path fill="#DABD92" opacity="1.000000" stroke="none" 
	d="
M223.856537,153.410645 
	C222.231888,148.794174 220.586304,143.768890 219.161972,138.681671 
	C218.974747,138.012985 219.919434,137.027359 220.657745,135.994598 
	C221.986618,136.809586 223.804153,137.769150 223.869446,138.835953 
	C224.157028,143.534592 223.939209,148.264191 223.856537,153.410645 
z"/>
<path fill="#A2733D" opacity="1.000000" stroke="none" 
	d="
M188.946884,33.578026 
	C183.068970,32.158272 177.162674,30.361361 171.085800,28.245031 
	C177.609894,27.317032 183.414917,29.744556 188.946884,33.578026 
z"/>
<path fill="#DBB78E" opacity="1.000000" stroke="none" 
	d="
M214.968262,95.023254 
	C212.339142,91.291229 208.508209,87.475510 211.566833,81.746880 
	C212.105408,80.738129 211.141449,78.927139 210.882263,77.082458 
	C211.936249,78.913162 213.442184,81.054832 213.915359,83.404488 
	C214.648621,87.045547 214.677444,90.828468 214.968262,95.023254 
z"/>
<path fill="#C9AE88" opacity="1.000000" stroke="none" 
	d="
M73.087769,16.731976 
	C70.095184,17.096827 66.856873,16.982859 63.635178,17.164124 
	C60.583282,17.335835 60.211803,19.028019 61.842834,21.703636 
	C59.615105,21.613602 56.993401,20.922770 58.169510,17.894899 
	C58.702545,16.522614 61.174240,15.137555 62.788837,15.110845 
	C66.134392,15.055500 69.494926,15.904802 73.087769,16.731976 
z"/>
<path fill="#D5AF79" opacity="1.000000" stroke="none" 
	d="
M89.202652,229.049683 
	C90.353851,227.584641 91.469841,226.533188 93.135529,224.963837 
	C96.264908,227.321533 99.499886,229.758804 102.875961,232.488190 
	C98.596062,230.858231 94.286263,228.471756 89.202652,229.049683 
z"/>
<path fill="#C2A37F" opacity="1.000000" stroke="none" 
	d="
M205.368774,71.113029 
	C205.361588,67.925827 200.967300,65.382324 203.858307,61.486286 
	C208.918228,63.099056 209.353531,64.898003 206.125732,70.688980 
	C206.066895,71.031326 205.599564,71.071327 205.368774,71.113029 
z"/>
<path fill="#D7AC7D" opacity="1.000000" stroke="none" 
	d="
M183.191589,211.854889 
	C183.995132,209.044510 185.151733,206.257675 186.511612,202.980988 
	C188.274612,205.118042 189.367218,206.442459 190.806152,207.806396 
	C188.616531,209.190094 186.080597,210.534256 183.191589,211.854889 
z"/>
<path fill="#D8B48D" opacity="1.000000" stroke="none" 
	d="
M13.855455,133.829025 
	C15.440269,134.548035 16.674679,135.486725 18.573618,136.930740 
	C17.683905,138.972626 16.631363,141.388199 15.248697,143.911041 
	C14.447398,140.695099 13.976225,137.371902 13.855455,133.829025 
z"/>
<path fill="#A87131" opacity="1.000000" stroke="none" 
	d="
M198.938950,58.714512 
	C198.841019,59.562893 198.609512,60.110516 197.777069,60.837685 
	C196.098602,60.879314 195.021072,60.741398 193.943558,60.603485 
	C194.843430,58.806145 195.743301,57.008804 196.861130,55.164070 
	C197.654510,56.215702 198.229935,57.314728 198.938950,58.714512 
z"/>
<path fill="#936A37" opacity="1.000000" stroke="none" 
	d="
M123.057617,234.104584 
	C125.109161,234.076920 127.160706,234.049255 129.654877,234.031525 
	C128.802505,234.848022 127.507500,235.654602 125.665863,236.767075 
	C124.432022,236.083527 123.744820,235.094055 123.057617,234.104584 
z"/>
<path fill="#DABC92" opacity="1.000000" stroke="none" 
	d="
M122.744980,234.199738 
	C123.744820,235.094055 124.432022,236.083527 125.479393,237.061859 
	C123.597359,237.563126 121.355156,238.075500 118.956779,238.222931 
	C120.011192,236.670303 121.221779,235.482590 122.744980,234.199738 
z"/>
<path fill="#9F733F" opacity="1.000000" stroke="none" 
	d="
M150.161438,15.316204 
	C150.864655,15.004954 151.625153,15.019968 152.767487,15.045471 
	C152.807007,16.140787 152.464691,17.225613 152.136322,18.658863 
	C151.506424,17.885679 150.862564,16.764072 150.161438,15.316204 
z"/>
<path fill="#DBB78E" opacity="1.000000" stroke="none" 
	d="
M216.032623,98.654060 
	C215.652267,98.129944 215.231415,97.214966 214.871674,95.903900 
	C215.285904,96.426285 215.639038,97.344742 216.032623,98.654060 
z"/>
<path fill="#C9AE88" opacity="1.000000" stroke="none" 
	d="
M74.658600,17.170246 
	C74.717072,16.972374 74.465851,16.881828 74.040146,17.047022 
	C73.939247,17.142611 74.422485,17.117422 74.658600,17.170246 
z"/>
<path fill="#D8B48D" opacity="1.000000" stroke="none" 
	d="
M14.806624,144.035492 
	C14.778533,144.116577 14.589252,144.376938 14.377432,144.924438 
	C14.357389,144.810669 14.454236,144.478409 14.806624,144.035492 
z"/>
<path fill="#DBB78E" opacity="1.000000" stroke="none" 
	d="
M216.728851,99.658463 
	C216.635101,99.553375 216.524475,99.214149 216.150543,98.964760 
	C216.227295,99.032433 216.502197,99.155685 216.728851,99.658463 
z"/>
<path fill="#C29B6F" opacity="1.000000" stroke="none" 
	d="
M117.701492,78.066147 
	C121.432556,74.498047 124.926628,70.937904 128.948456,67.065323 
	C130.003342,66.203712 130.530457,65.654541 131.057571,65.105377 
	C131.836334,64.803421 132.615112,64.501472 133.883698,64.387878 
	C135.220245,65.073158 136.066971,65.570091 137.088867,66.351715 
	C141.605148,71.181870 144.721039,76.322113 145.571335,82.711975 
	C146.240860,87.743431 147.179611,92.739052 147.586029,97.791008 
	C145.797058,97.903587 144.420822,97.975754 142.781815,98.026192 
	C142.343353,97.999603 142.167664,97.994751 141.733765,97.766510 
	C139.569290,94.834816 137.663025,92.126495 135.756775,89.418182 
	C135.222961,89.639107 134.689148,89.860031 134.155334,90.080956 
	C134.417191,93.402893 134.679062,96.724823 134.832275,100.353165 
	C133.651550,106.997849 132.877808,113.240105 139.988678,117.343597 
	C140.936722,120.354645 141.508835,123.173576 142.852631,125.557510 
	C147.921204,134.549271 148.215698,144.420380 148.268463,154.222992 
	C143.826752,153.495270 140.257950,152.247696 139.209320,147.497910 
	C139.100220,147.003815 137.610504,146.814514 136.456543,146.563599 
	C134.453522,147.111145 132.776321,147.839752 131.051697,147.978363 
	C129.048325,148.139404 126.994690,147.599625 124.978523,147.694962 
	C122.066116,147.832642 119.167778,148.267975 116.505409,148.380371 
	C117.128685,146.666458 117.829117,145.151138 117.841690,143.630127 
	C117.960861,129.209579 118.078239,114.787064 117.951439,100.367264 
	C117.886063,92.932678 117.326530,85.502441 116.990280,78.070236 
	C116.990280,78.070236 117.464500,78.074097 117.701492,78.066147 
z"/>
<path fill="#D3A97A" opacity="1.000000" stroke="none" 
	d="
M116.829094,77.772278 
	C117.326530,85.502441 117.886063,92.932678 117.951439,100.367264 
	C118.078239,114.787064 117.960861,129.209579 117.841690,143.630127 
	C117.829117,145.151138 117.128685,146.666458 116.136047,148.287018 
	C112.837479,147.956833 109.612442,146.390808 107.586800,147.352097 
	C104.406830,148.861237 102.558838,147.553818 99.943436,146.278900 
	C98.039955,148.464401 96.476151,150.631622 94.532471,152.854675 
	C92.183357,153.346359 90.214111,153.782211 88.197693,153.750916 
	C88.218887,143.635162 88.781944,134.163528 93.758835,125.408508 
	C95.486092,122.370033 95.905861,118.588295 97.288391,115.057220 
	C98.710640,114.011116 100.566956,113.149849 100.695282,112.081093 
	C101.582336,104.693100 102.109322,97.261871 102.868599,88.498657 
	C97.527443,91.537842 97.811119,95.577477 96.623764,98.999039 
	C95.854904,98.956841 95.414772,98.945190 94.816673,98.657906 
	C93.717094,97.977249 92.775482,97.572235 91.514236,97.163254 
	C90.767906,97.148880 90.341217,97.138474 89.922630,96.655075 
	C88.926880,83.317642 92.072723,72.141380 102.974174,64.120270 
	C107.538750,68.571625 112.103333,73.022972 116.829094,77.772278 
z"/>
<path fill="#C99663" opacity="1.000000" stroke="none" 
	d="
M96.922821,115.146034 
	C95.905861,118.588295 95.486092,122.370033 93.758835,125.408508 
	C88.781944,134.163528 88.218887,143.635162 88.110229,154.118591 
	C87.584595,156.696548 87.099243,158.439682 86.613892,160.182816 
	C83.902756,153.455872 80.623146,146.894501 78.605194,139.965683 
	C75.002167,127.594330 71.553192,115.106697 69.353569,102.439545 
	C68.650986,98.393524 71.526970,93.302475 73.787857,89.261543 
	C77.476791,82.668228 82.273544,76.702278 86.106262,70.179810 
	C90.228096,63.165321 96.040199,60.545502 102.718628,63.849670 
	C92.072723,72.141380 88.926880,83.317642 89.780228,96.857422 
	C89.393433,97.973587 89.157150,98.414421 88.544014,98.867661 
	C86.221336,99.480865 84.275513,100.081657 81.801514,100.845520 
	C83.523262,103.247139 84.753349,104.962944 85.928925,106.978729 
	C86.872528,108.358139 87.710587,109.679642 88.901672,110.467262 
	C91.479492,112.171875 94.238136,113.603027 96.922821,115.146034 
z"/>
<path fill="#E0C4A6" opacity="1.000000" stroke="none" 
	d="
M94.912346,152.798859 
	C96.476151,150.631622 98.039955,148.464401 99.858536,146.630646 
	C101.931885,149.480515 103.276253,153.470688 105.657928,154.237030 
	C112.811722,156.538849 115.155754,162.358398 117.977005,168.456360 
	C117.964355,169.852463 117.964081,170.867859 117.769699,172.168442 
	C115.399460,173.959167 113.223335,175.464722 110.859047,177.131134 
	C106.916542,179.084915 103.812027,183.577026 98.982368,180.132935 
	C97.915306,181.101547 96.959396,181.969254 96.001122,182.531677 
	C95.993019,181.819366 95.987274,181.412323 95.834450,180.828888 
	C95.485229,180.421951 95.266403,180.208511 94.757278,180.018127 
	C94.301308,180.029694 94.118950,180.035278 93.936584,180.040878 
	C92.354515,177.627106 90.772438,175.213333 89.200592,172.095474 
	C90.173286,165.560486 89.735596,159.284576 94.628731,154.700104 
	C94.995277,154.356674 94.830261,153.445892 94.912346,152.798859 
z"/>
<path fill="#9F6F37" opacity="1.000000" stroke="none" 
	d="
M143.967850,192.980469 
	C143.458145,193.203018 142.948441,193.425552 141.946442,193.937164 
	C140.958084,194.809540 140.462021,195.392853 139.965942,195.976166 
	C137.080078,198.144684 134.480179,201.107391 131.234329,202.276230 
	C127.371620,203.667175 122.954292,203.517899 118.378784,204.031250 
	C116.762909,203.581970 115.545502,203.137421 114.533936,202.310013 
	C117.918884,201.431931 121.098015,200.936707 124.676186,200.376038 
	C130.651382,201.071625 132.734131,195.818481 136.610641,193.734482 
	C142.451584,190.594406 144.046570,186.165939 142.914337,179.796204 
	C147.672760,175.973663 150.780060,171.744675 150.206665,165.538422 
	C150.008545,163.394012 150.208893,161.212799 150.466125,158.931580 
	C151.164124,158.543259 151.623184,158.271744 152.221878,158.304718 
	C152.573456,161.404358 152.785400,164.199524 152.997345,166.994705 
	C151.414139,171.109146 149.830933,175.223602 147.807556,179.860214 
	C146.234207,184.581741 145.101028,188.781113 143.967850,192.980469 
z"/>
<path fill="#EECBA3" opacity="1.000000" stroke="none" 
	d="
M124.277138,200.441498 
	C121.098015,200.936707 117.918884,201.431931 114.350235,202.035507 
	C113.547379,202.079468 113.134041,202.015076 112.230270,201.604248 
	C109.797905,200.797180 107.855988,200.336533 105.914070,199.875900 
	C105.914070,199.875900 105.740685,199.782104 105.521492,199.556824 
	C104.610374,198.765030 103.918449,198.198502 103.226517,197.631958 
	C103.226524,197.631958 103.306755,197.758499 103.274460,197.388824 
	C100.860153,195.267609 98.478134,193.516083 96.096123,191.764542 
	C96.096123,191.764542 96.050232,191.893448 96.001694,191.603210 
	C95.327957,190.697739 94.702751,190.082520 94.077545,189.467300 
	C93.926628,186.558792 93.775711,183.650299 93.780693,180.391327 
	C94.118950,180.035278 94.301308,180.029694 94.904243,180.193970 
	C95.530174,180.591537 95.749077,180.805359 95.981537,181.005295 
	C95.987274,181.412323 95.993019,181.819366 96.008926,182.917999 
	C98.054855,191.043518 108.894371,199.112701 118.386406,199.981110 
	C120.596420,200.131866 122.436775,200.286682 124.277138,200.441498 
z"/>
<path fill="#E8C49C" opacity="1.000000" stroke="none" 
	d="
M94.532471,152.854675 
	C94.830261,153.445892 94.995277,154.356674 94.628731,154.700104 
	C89.735596,159.284576 90.173286,165.560486 89.053848,171.783371 
	C88.089432,170.259171 86.989624,168.405426 86.562996,166.407913 
	C86.192307,164.672348 86.583031,162.774170 86.625580,160.565338 
	C87.099243,158.439682 87.584595,156.696548 88.157410,154.585724 
	C90.214111,153.782211 92.183357,153.346359 94.532471,152.854675 
z"/>
<path fill="#D6A466" opacity="1.000000" stroke="none" 
	d="
M32.092159,73.372467 
	C33.081352,72.140770 34.227890,71.210175 35.808037,70.464188 
	C38.440475,74.467438 40.639305,78.286087 42.920425,82.365173 
	C43.281940,83.089851 43.561161,83.554092 43.840378,84.018341 
	C42.879242,86.693764 41.358528,87.084053 39.685402,84.745430 
	C37.099785,81.131355 34.717831,77.371559 32.092159,73.372467 
z"/>
<path fill="#C08A4B" opacity="1.000000" stroke="none" 
	d="
M42.838135,82.104744 
	C40.639305,78.286087 38.440475,74.467438 36.089012,70.316544 
	C35.972477,69.270096 36.008575,68.555878 36.069092,67.487198 
	C38.178257,67.000999 40.263000,66.869278 42.546021,67.146912 
	C39.281578,71.799721 41.399128,75.426300 44.009167,78.998436 
	C44.009167,78.998436 44.045586,79.457230 43.948490,79.983208 
	C43.513641,81.041039 43.175888,81.572891 42.838135,82.104744 
z"/>
<path fill="#C1833C" opacity="1.000000" stroke="none" 
	d="
M44.166626,78.696899 
	C41.399128,75.426300 39.281578,71.799721 42.868767,67.253342 
	C43.706997,66.920555 44.420765,66.890701 45.489174,66.838211 
	C49.940060,71.279572 46.374363,74.738022 44.166626,78.696899 
z"/>
<path fill="#9F6F37" opacity="1.000000" stroke="none" 
	d="
M96.195900,192.096527 
	C98.478134,193.516083 100.860153,195.267609 103.337296,197.348053 
	C101.053513,195.927460 98.674591,194.177979 96.195900,192.096527 
z"/>
<path fill="#9F6F37" opacity="1.000000" stroke="none" 
	d="
M106.071732,200.180084 
	C107.855988,200.336533 109.797905,200.797180 111.914551,201.594711 
	C110.135979,201.449173 108.182686,200.966736 106.071732,200.180084 
z"/>
<path fill="#C1833C" opacity="1.000000" stroke="none" 
	d="
M42.920425,82.365173 
	C43.175888,81.572891 43.513641,81.041039 43.963428,80.212845 
	C47.738655,80.881165 46.126175,82.283211 44.114571,83.856979 
	C43.561161,83.554092 43.281940,83.089851 42.920425,82.365173 
z"/>
<path fill="#9F6F37" opacity="1.000000" stroke="none" 
	d="
M103.338028,197.969360 
	C103.918449,198.198502 104.610374,198.765030 105.463394,199.636444 
	C104.899506,199.396484 104.174522,198.851624 103.338028,197.969360 
z"/>
<path fill="#9F6F37" opacity="1.000000" stroke="none" 
	d="
M94.178680,189.796387 
	C94.702751,190.082520 95.327957,190.697739 96.066231,191.625916 
	C95.546135,191.334427 94.912971,190.729950 94.178680,189.796387 
z"/>
<path fill="#A46A2B" opacity="1.000000" stroke="none" 
	d="
M153.185974,166.687347 
	C152.785400,164.199524 152.573456,161.404358 152.280945,157.939056 
	C156.292633,144.477859 160.794144,131.797882 164.308472,118.849968 
	C166.129028,112.142487 166.200851,104.960373 167.055939,97.618835 
	C167.010239,96.498138 166.971329,95.751297 166.932434,95.004448 
	C168.234879,97.650284 171.076294,100.629471 170.587250,102.887253 
	C167.657623,116.412209 164.090790,129.806122 160.473328,143.172424 
	C158.361084,150.977036 155.757263,158.648590 153.185974,166.687347 
z"/>
<path fill="#BA8651" opacity="1.000000" stroke="none" 
	d="
M166.880341,94.708740 
	C166.971329,95.751297 167.010239,96.498138 166.708984,97.551392 
	C163.903366,95.061989 161.202789,92.436356 159.027573,89.430511 
	C155.760666,84.916138 152.382263,80.372879 149.924103,75.409607 
	C146.599716,68.697327 143.610184,66.083252 136.913712,66.067032 
	C136.066971,65.570091 135.220245,65.073158 134.194672,64.338074 
	C134.519638,63.529121 135.023422,62.958309 136.187225,62.216339 
	C139.556519,62.382954 142.265793,62.720734 144.975082,63.058514 
	C145.493530,63.599628 146.011963,64.140747 146.935791,65.132156 
	C149.408020,68.936607 151.296234,72.418343 153.580383,75.617348 
	C157.831802,81.571526 162.313828,87.361046 166.699860,93.219101 
	C166.742645,93.617081 166.785446,94.015053 166.880341,94.708740 
z"/>
<path fill="#A46A2B" opacity="1.000000" stroke="none" 
	d="
M166.860992,92.948669 
	C162.313828,87.361046 157.831802,81.571526 153.580383,75.617348 
	C151.296234,72.418343 149.408020,68.936607 147.169357,65.290764 
	C148.195648,65.466377 149.905624,65.579491 150.512146,66.456085 
	C156.177216,74.643562 161.661285,82.956528 167.150742,91.264229 
	C167.354492,91.572594 167.075912,92.199684 166.860992,92.948669 
z"/>
<path fill="#B37936" opacity="1.000000" stroke="none" 
	d="
M192.367538,83.021904 
	C192.228912,82.938545 191.993423,82.879425 191.965637,82.768341 
	C190.864502,78.367218 189.782211,73.961372 189.192688,69.304840 
	C191.614243,69.053535 193.540604,69.053535 196.248520,69.053535 
	C196.097305,71.007835 195.795166,72.665451 195.899048,74.297218 
	C195.978928,75.552361 196.569687,76.774986 196.819061,78.310165 
	C195.259094,80.079475 193.813309,81.550690 192.367538,83.021904 
z"/>
<path fill="#AF7F41" opacity="1.000000" stroke="none" 
	d="
M196.933273,78.012070 
	C196.569687,76.774986 195.978928,75.552361 195.899048,74.297218 
	C195.795166,72.665451 196.097305,71.007835 196.248520,69.053535 
	C193.540604,69.053535 191.614243,69.053535 189.354095,69.025345 
	C188.735001,67.880417 188.449692,66.763680 188.501678,65.371147 
	C191.225082,65.407707 193.611176,65.720055 195.997284,66.032402 
	C199.213669,66.282173 200.649673,68.140717 200.541290,71.868851 
	C199.227951,74.332611 198.080612,76.172340 196.933273,78.012070 
z"/>
<path fill="#C7935B" opacity="1.000000" stroke="none" 
	d="
M196.819061,78.310165 
	C198.080612,76.172340 199.227951,74.332611 200.553619,72.232315 
	C201.638199,72.247299 202.544434,72.522858 203.770813,72.947929 
	C201.294998,77.392021 198.499054,81.686600 195.053436,86.084435 
	C193.928329,86.141212 193.452911,86.094734 192.977478,86.048256 
	C192.770569,85.248222 192.563644,84.448189 192.362137,83.335030 
	C193.813309,81.550690 195.259094,80.079475 196.819061,78.310165 
z"/>
<path fill="#C8975F" opacity="1.000000" stroke="none" 
	d="
M196.087677,65.708191 
	C193.611176,65.720055 191.225082,65.407707 188.449249,65.029266 
	C188.059509,64.963173 188.044434,64.504814 188.253723,63.994362 
	C188.587372,62.576694 188.711731,61.669483 188.836075,60.762268 
	C190.255844,60.741268 191.675629,60.720264 193.519470,60.651371 
	C195.021072,60.741398 196.098602,60.879314 197.580475,61.064201 
	C197.382584,62.535446 196.780319,63.959713 196.087677,65.708191 
z"/>
<path fill="#A36925" opacity="1.000000" stroke="none" 
	d="
M144.319809,192.873322 
	C145.101028,188.781113 146.234207,184.581741 147.668182,180.172104 
	C147.929108,182.902145 148.226227,185.903427 147.710007,188.757599 
	C147.443924,190.228821 145.730957,191.438370 144.319809,192.873322 
z"/>
<path fill="#A46A2B" opacity="1.000000" stroke="none" 
	d="
M144.911774,62.704514 
	C142.265793,62.720734 139.556519,62.382954 136.422455,62.050179 
	C139.367783,58.154263 141.631012,58.229782 144.911774,62.704514 
z"/>
<path fill="#A87131" opacity="1.000000" stroke="none" 
	d="
M188.619675,60.732071 
	C188.711731,61.669483 188.587372,62.576694 188.263489,63.765270 
	C188.177078,62.931713 188.290176,61.816795 188.619675,60.732071 
z"/>
<path fill="#A36925" opacity="1.000000" stroke="none" 
	d="
M140.237640,195.858810 
	C140.462021,195.392853 140.958084,194.809540 141.722046,194.103577 
	C141.496429,194.567780 141.002884,195.154617 140.237640,195.858810 
z"/>
<path fill="#BA8651" opacity="1.000000" stroke="none" 
	d="
M130.773071,65.187073 
	C130.530457,65.654541 130.003342,66.203712 129.193558,66.841797 
	C129.436783,66.376732 129.962662,65.822754 130.773071,65.187073 
z"/>
<path fill="#B37936" opacity="1.000000" stroke="none" 
	d="
M193.062531,86.253670 
	C193.452911,86.094734 193.928329,86.141212 194.756775,86.254669 
	C194.455719,86.367455 193.801651,86.413269 193.062531,86.253670 
z"/>
<path fill="#B6895C" opacity="1.000000" stroke="none" 
	d="
M137.088867,66.351715 
	C143.610184,66.083252 146.599716,68.697327 149.924103,75.409607 
	C152.382263,80.372879 155.760666,84.916138 159.027573,89.430511 
	C161.202789,92.436356 163.903366,95.061989 166.715759,97.925240 
	C166.200851,104.960373 166.129028,112.142487 164.308472,118.849968 
	C160.794144,131.797882 156.292633,144.477859 152.141327,157.634583 
	C151.623184,158.271744 151.164124,158.543259 150.231049,158.646866 
	C149.378586,157.086868 149.000107,155.694794 148.621643,154.302704 
	C148.215698,144.420380 147.921204,134.549271 142.852631,125.557510 
	C141.508835,123.173576 140.936722,120.354645 140.045959,116.994400 
	C143.325607,114.019745 146.526627,111.720093 149.827469,109.573975 
	C152.353409,107.931686 154.981522,106.469582 153.847992,102.386993 
	C151.951721,100.614372 149.975235,99.182480 147.998764,97.750595 
	C147.179611,92.739052 146.240860,87.743431 145.571335,82.711975 
	C144.721039,76.322113 141.605148,71.181870 137.088867,66.351715 
z"/>
<path fill="#CCB295" opacity="1.000000" stroke="none" 
	d="
M148.268463,154.222992 
	C149.000107,155.694794 149.378586,157.086868 149.992126,158.763672 
	C150.208893,161.212799 150.008545,163.394012 150.206665,165.538422 
	C150.780060,171.744675 147.672760,175.973663 142.706467,180.057053 
	C139.943253,183.913101 136.947586,183.121307 134.043243,181.645752 
	C131.285538,180.244690 128.676086,178.551788 125.838226,176.679169 
	C123.104614,174.875153 120.534210,173.379196 117.963806,171.883255 
	C117.964081,170.867859 117.964355,169.852463 118.259781,168.264008 
	C121.890480,162.040359 124.433792,155.942902 131.830109,153.729935 
	C134.002090,153.080078 135.146194,148.994659 136.761383,146.483795 
	C137.610504,146.814514 139.100220,147.003815 139.209320,147.497910 
	C140.257950,152.247696 143.826752,153.495270 148.268463,154.222992 
z"/>
<path fill="#2F2016" opacity="1.000000" stroke="none" 
	d="
M136.456543,146.563599 
	C135.146194,148.994659 134.002090,153.080078 131.830109,153.729935 
	C124.433792,155.942902 121.890480,162.040359 118.272148,167.883316 
	C115.155754,162.358398 112.811722,156.538849 105.657928,154.237030 
	C103.276253,153.470688 101.931885,149.480515 100.198212,146.612396 
	C102.558838,147.553818 104.406830,148.861237 107.586800,147.352097 
	C109.612442,146.390808 112.837479,147.956833 115.894081,148.482971 
	C119.167778,148.267975 122.066116,147.832642 124.978523,147.694962 
	C126.994690,147.599625 129.048325,148.139404 131.051697,147.978363 
	C132.776321,147.839752 134.453522,147.111145 136.456543,146.563599 
z"/>
<path fill="#C4A688" opacity="1.000000" stroke="none" 
	d="
M153.767776,102.727722 
	C154.981522,106.469582 152.353409,107.931686 149.827469,109.573975 
	C146.526627,111.720093 143.325607,114.019745 140.024353,116.602539 
	C132.877808,113.240105 133.651550,106.997849 135.133972,100.453911 
	C136.666473,100.821953 137.788635,101.395668 138.883011,102.227631 
	C139.266281,104.089127 139.677322,105.692383 140.088364,107.295639 
	C142.391205,106.538086 144.694046,105.780525 147.366302,105.043930 
	C149.746414,104.285835 151.757095,103.506775 153.767776,102.727722 
z"/>
<path fill="#8D714E" opacity="1.000000" stroke="none" 
	d="
M146.996887,105.022964 
	C144.694046,105.780525 142.391205,106.538086 140.088364,107.295639 
	C139.677322,105.692383 139.266281,104.089127 139.080551,101.981735 
	C140.201233,100.315025 141.096603,99.152458 141.991959,97.989891 
	C142.167664,97.994751 142.343353,97.999603 142.896667,98.336227 
	C145.029343,100.485107 148.729492,101.162842 146.996887,105.022964 
z"/>
<path fill="#D1B08C" opacity="1.000000" stroke="none" 
	d="
M141.733765,97.766510 
	C141.096603,99.152458 140.201233,100.315025 139.108337,101.723488 
	C137.788635,101.395668 136.666473,100.821953 135.242615,100.147507 
	C134.679062,96.724823 134.417191,93.402893 134.155334,90.080956 
	C134.689148,89.860031 135.222961,89.639107 135.756775,89.418182 
	C137.663025,92.126495 139.569290,94.834816 141.733765,97.766510 
z"/>
<path fill="#43260D" opacity="1.000000" stroke="none" 
	d="
M147.366302,105.043930 
	C148.729492,101.162842 145.029343,100.485107 143.159424,98.357956 
	C144.420822,97.975754 145.797058,97.903587 147.586029,97.791008 
	C149.975235,99.182480 151.951721,100.614372 153.847992,102.386993 
	C151.757095,103.506775 149.746414,104.285835 147.366302,105.043930 
z"/>
<path fill="#E5C4A0" opacity="1.000000" stroke="none" 
	d="
M97.288383,115.057220 
	C94.238136,113.603027 91.479492,112.171875 88.901672,110.467262 
	C87.710587,109.679642 86.872528,108.358139 86.336517,107.053772 
	C88.168541,106.851196 89.538475,106.873535 91.293236,106.949142 
	C93.567604,106.786087 96.933640,106.918594 97.081955,106.290855 
	C97.621307,104.008064 97.083893,101.470863 96.952499,99.029594 
	C97.811119,95.577477 97.527443,91.537842 102.868599,88.498657 
	C102.109322,97.261871 101.582336,104.693100 100.695282,112.081093 
	C100.566956,113.149849 98.710640,114.011116 97.288383,115.057220 
z"/>
<path fill="#9B7A54" opacity="1.000000" stroke="none" 
	d="
M96.623764,98.999039 
	C97.083893,101.470863 97.621307,104.008064 97.081955,106.290855 
	C96.933640,106.918594 93.567604,106.786087 91.306747,106.595932 
	C90.263908,103.744713 89.592392,101.299980 88.920868,98.855255 
	C89.157150,98.414421 89.393433,97.973587 89.772118,97.330414 
	C90.341217,97.138474 90.767906,97.148880 91.575470,97.451874 
	C92.962433,98.140823 93.968536,98.537186 94.974640,98.933548 
	C95.414772,98.945190 95.854904,98.956841 96.623764,98.999039 
z"/>
<path fill="#C99663" opacity="1.000000" stroke="none" 
	d="
M94.816673,98.657906 
	C93.968536,98.537186 92.962433,98.140823 91.895096,97.455841 
	C92.775482,97.572235 93.717094,97.977249 94.816673,98.657906 
z"/>
<path fill="#502E16" opacity="1.000000" stroke="none" 
	d="
M88.544022,98.867668 
	C89.592392,101.299980 90.263908,103.744713 90.921913,106.542648 
	C89.538475,106.873535 88.168541,106.851196 86.391022,106.753807 
	C84.753349,104.962944 83.523262,103.247139 81.801514,100.845520 
	C84.275513,100.081657 86.221336,99.480865 88.544022,98.867668 
z"/>
<path fill="#E9D3BB" opacity="1.000000" stroke="none" 
	d="
M118.016754,199.985168 
	C108.894371,199.112701 98.054855,191.043518 96.011292,183.223297 
	C96.959396,181.969254 97.915306,181.101547 98.982368,180.132935 
	C103.812027,183.577026 106.916542,179.084915 111.237549,177.159546 
	C113.907356,177.626862 116.010498,178.226624 118.104111,179.305206 
	C118.068642,186.517746 118.042694,193.251465 118.016754,199.985168 
z"/>
<path fill="#675649" opacity="1.000000" stroke="none" 
	d="
M118.113647,178.826370 
	C116.010498,178.226624 113.907356,177.626862 111.425720,176.998688 
	C113.223335,175.464722 115.399460,173.959167 117.769699,172.168442 
	C120.534210,173.379196 123.104614,174.875153 125.460358,176.747620 
	C122.868355,177.691544 120.491005,178.258957 118.113647,178.826370 
z"/>
<path fill="#E9D3BB" opacity="1.000000" stroke="none" 
	d="
M95.834450,180.828888 
	C95.749077,180.805359 95.530174,180.591537 95.177856,180.188019 
	C95.266403,180.208511 95.485229,180.421951 95.834450,180.828888 
z"/>
<path fill="#D5BFA5" opacity="1.000000" stroke="none" 
	d="
M118.104111,179.305206 
	C120.491005,178.258957 122.868355,177.691544 125.623581,177.055679 
	C128.676086,178.551788 131.285538,180.244690 134.043243,181.645752 
	C136.947586,183.121307 139.943253,183.913101 142.564728,180.383850 
	C144.046570,186.165939 142.451584,190.594406 136.610641,193.734482 
	C132.734131,195.818481 130.651382,201.071625 124.676186,200.376038 
	C122.436775,200.286682 120.596420,200.131866 118.386406,199.981110 
	C118.042694,193.251465 118.068642,186.517746 118.104111,179.305206 
z"/>
</svg>